<svg width="32" height="32" viewBox="0 0 32 32" fill="none" xmlns="http://www.w3.org/2000/svg">
<path d="M25.5999 4.2666H6.39994C5.22127 4.2666 4.2666 5.22127 4.2666 6.39994V25.5999C4.2666 26.7786 5.22127 27.7333 6.39994 27.7333H17.0666V18.1333H13.8666V14.9333H17.0666V13.2149C17.0666 9.96153 18.6517 8.53327 21.3557 8.53327C22.6506 8.53327 23.3354 8.62927 23.6597 8.673V11.7333H21.8154C20.6677 11.7333 20.2666 12.3391 20.2666 13.5658V14.9333H23.6309L23.1743 18.1333H20.2666V27.7333H25.5999C26.7786 27.7333 27.7333 26.7786 27.7333 25.5999V6.39994C27.7333 5.22127 26.7775 4.2666 25.5999 4.2666Z" fill="#B1C5FF"/>
</svg>
