<svg xmlns="http://www.w3.org/2000/svg" viewBox="0 0 24 24" fill="none">
  <path
    d="M12 2C6.48 2 2 6.58 2 12.22C2 16.73 4.87 20.55 8.84 21.9C9.34 22 9.52 21.68 9.52 21.4C9.52 21.14 9.51 20.43 9.51 19.68C7 20.24 6.47 18.57 6.47 18.57C6.06 17.5 5.45 17.22 5.45 17.22C4.62 16.64 5.51 16.65 5.51 16.65C6.44 16.72 6.93 17.63 6.93 17.63C7.75 19.08 9.08 18.66 9.61 18.41C9.69 17.8 9.93 17.38 10.19 17.14C8.18 16.9 6.07 16.1 6.07 12.54C6.07 11.53 6.42 10.7 7 10.04C6.91 9.8 6.6 8.85 7.09 7.56C7.09 7.56 7.86 7.31 9.5 8.45C10.24 8.24 11.04 8.14 11.84 8.14C12.64 8.14 13.44 8.24 14.18 8.45C15.82 7.31 16.59 7.56 16.59 7.56C17.08 8.85 16.77 9.8 16.68 10.04C17.26 10.7 17.61 11.53 17.61 12.54C17.61 16.11 15.5 16.89 13.49 17.13C13.82 17.43 14.12 18 14.12 18.87C14.12 20.12 14.11 21.06 14.11 21.4C14.11 21.68 14.29 22 14.79 21.9C18.76 20.55 21.63 16.73 21.63 12.22C21.63 6.58 17.15 2 11.63 2H12Z"
    fill="#FFFFFF"
  />
</svg>
