<svg width="67" height="45" viewBox="0 0 67 45" fill="none" xmlns="http://www.w3.org/2000/svg">
<path fill-rule="evenodd" clip-rule="evenodd" d="M58.2442 28.9434C58.2988 28.7569 58.138 28.5732 58.0519 28.4727C56.3183 26.6587 54.6076 24.8046 52.9085 22.9561C51.8092 21.7621 50.6381 20.1318 49.513 19.1072C48.4711 18.1542 47.7047 17.9906 46.2323 18.226C45.4401 18.3523 44.5963 18.4614 43.8357 18.6996C39.9408 19.9194 38.5688 20.6714 35.888 22.8959C35.1876 23.4757 34.2204 24.2736 33.6779 25.0313C33.5947 25.149 33.4282 25.3557 33.3765 25.4791C32.7192 27.0921 32.8599 28.8659 33.0091 30.6254C33.0752 31.409 32.9948 35.1919 32.9718 36.2396C32.9575 36.9801 33.0206 37.6087 33.0206 38.3205C33.0206 38.6219 33.0952 38.7137 33.3851 38.5358C34.6681 37.7464 36.1807 36.7878 37.7508 35.8234C40.3282 34.2362 43.0636 32.6202 45.1818 31.6673C49.203 29.8562 52.5812 29.13 56.8435 28.9434C57.1908 28.9262 58.0031 28.9951 58.2442 28.9434Z" fill="#DAE2FF"/>
<path fill-rule="evenodd" clip-rule="evenodd" d="M4.36996 33.0966C8.86475 33.1684 14.0312 33.0823 18.4685 33.6965C22.9777 34.3222 25.8106 35.0541 29.7973 36.7074C30.3341 36.9801 31.1349 37.3044 31.6228 37.6259C31.7807 37.7292 31.9472 37.8096 32.0275 37.5397C32.1796 37.0202 32.0706 33.0564 32.0734 32.2097C32.0734 31.3027 32.0964 30.413 32.1079 29.5088C32.1165 28.7597 32.1883 27.8326 32.0907 27.006C32.0074 26.3028 31.7922 25.4762 31.1607 25.0829C30.888 24.9107 30.5953 24.7672 30.3054 24.6122C28.6148 23.6995 25.6929 23.0766 23.8215 22.7121C21.7148 22.3017 19.9639 22.184 17.8486 22.1984C16.7378 22.207 15.5926 22.5428 14.7631 23.1828C14.6368 23.2804 14.5076 23.378 14.3899 23.4727C12.7424 24.8045 11.0203 26.7793 9.41009 28.2345C8.32227 29.2189 7.24306 30.2207 6.14664 31.1994C5.60703 31.6816 5.10187 32.1581 4.57662 32.6431C4.46181 32.7436 4.30682 32.8613 4.36996 33.0966Z" fill="#DAE2FF"/>
<path fill-rule="evenodd" clip-rule="evenodd" d="M63.9158 40.3641C63.6977 40.8434 63.6403 41.0271 63.4795 41.2768C62.8796 42.2154 62.2252 42.1637 61.169 42.0518C59.8286 41.9111 58.2988 41.8939 56.9325 41.8107C52.6875 41.5523 48.23 41.5897 44.0251 41.2337C41.9557 41.0587 39.3064 40.697 37.3346 41.3112C36.5854 41.5437 34.7456 41.8193 33.9621 41.848C31.5568 41.9312 30.182 41.0271 28.1039 40.9467C21.7722 40.7085 14.8922 41.5035 8.53753 41.4806C7.3837 41.4777 5.14779 41.7045 4.21209 41.5782C2.92336 41.4031 2.48995 40.6941 2.07664 41.2424C1.56287 41.8652 1.08928 42.534 0.60134 43.1338C-0.486478 44.4742 0.0445147 44.2733 1.06058 44.2705C3.08983 44.2676 5.44055 44.1356 7.4612 43.9232C12.5559 43.3893 19.3813 43.2601 24.5333 43.0563C26.3732 42.9846 26.8726 42.8784 28.8215 43.0879C30.0557 43.2199 31.7807 43.3663 33.0034 43.3692C35.6985 43.3749 37.9373 42.5598 41.1864 42.5598C42.8282 42.5598 47.963 42.7464 49.7397 42.9702C52.3545 43.3003 55.3682 43.395 58.0519 43.6304C60.0898 43.6964 62.2912 43.8945 64.3636 44.0466C64.5903 44.0638 66.2177 44.2905 66.4273 44.193C66.4588 44.0753 66.4129 43.9748 66.344 43.8858C65.615 42.9071 64.7941 41.6872 64.2344 40.6109C64.1397 40.4272 64.1425 40.3612 63.9158 40.3641Z" fill="#DAE2FF"/>
<path fill-rule="evenodd" clip-rule="evenodd" d="M37.9775 37.6202C38.9046 37.5254 39.9149 37.0404 40.4918 36.9141C43.5113 36.2511 45.532 35.7028 48.7064 35.4847C52.4894 35.2264 56.0485 35.3469 59.7999 35.3326C60.2534 35.3297 60.9968 35.39 61.4101 35.3125C61.4818 34.9566 60.638 34.3969 60.3682 34.2161C59.1426 33.4124 56.0427 33.4842 54.6076 33.6248C51.8637 33.8917 48.959 34.1242 46.2753 34.6552C46.3299 34.483 50.971 33.2545 51.4303 33.1311C55.2391 32.1122 59.9951 32.7465 60.4859 32.603C60.549 32.2012 60.041 31.6501 59.7798 31.3975C58.7465 30.4015 56.1489 30.3355 54.7798 30.5192C49.8316 31.188 46.1376 32.4652 41.617 34.8676C40.6784 35.367 39.117 36.2539 38.3994 37.0203C38.2588 37.1724 37.9976 37.3934 37.9775 37.6202Z" fill="#DAE2FF"/>
<path fill-rule="evenodd" clip-rule="evenodd" d="M4.01118 37.4422C3.95664 37.8899 4.00831 38.7452 4.01692 39.2303C4.02266 39.5288 3.98534 39.8618 3.9997 40.1488C4.01692 40.519 4.22357 40.4789 4.53356 40.4272C5.37454 40.2866 7.17991 40.3382 8.12135 40.3354C11.5226 40.321 15.2625 40.166 18.6723 40.0254C21.6344 39.9019 24.5448 39.8245 27.5126 39.7584C28.0149 39.747 28.2675 39.6982 28.81 39.7039C28.9678 39.7068 29.1257 39.7297 29.2549 39.6465C29.1487 39.4226 28.1958 39.1844 28.0006 39.1299C25.6326 38.4439 23.1614 38.0105 20.7504 37.4967L17.5242 37.1523C15.6385 36.8365 9.37564 36.9714 7.29185 37.1379C6.73216 37.181 4.27811 37.2527 4.01118 37.4422Z" fill="#DAE2FF"/>
<path fill-rule="evenodd" clip-rule="evenodd" d="M39.0424 39.7986L61.6742 39.7872C61.9124 39.3911 61.8349 37.933 61.7488 37.3733C61.6282 36.584 61.5048 36.8825 59.5932 36.8222C57.8567 36.7677 55.928 36.8193 54.2029 36.8853C50.9567 37.0116 47.7162 37.4537 44.5188 37.9933C42.6388 38.3119 41.0573 38.8314 39.3294 39.569C39.2978 39.5834 39.2031 39.6264 39.1888 39.635C38.962 39.7814 39.1227 39.6264 39.0424 39.7986Z" fill="#DAE2FF"/>
<path fill-rule="evenodd" clip-rule="evenodd" d="M6.01747 35.4933C6.20116 35.5823 10.7935 35.6741 11.4451 35.6798C15.0128 35.7143 20.5351 35.9726 24.1688 37.0231C24.496 37.1178 26.3071 37.4623 26.5023 37.4049C26.3932 37.1781 25.3026 36.8566 24.9954 36.7705C24.806 36.7189 24.6539 36.6328 24.4472 36.5754C20.0644 35.3268 14.4072 34.9221 9.98987 35.0886C9.27805 35.1115 6.31884 35.344 6.01747 35.4933Z" fill="#DAE2FF"/>
<path d="M15.8796 5.44196V0.140641H16.9617V4.53784H19.6425V5.44196H15.8796ZM20.3715 5.44196V0.097588H21.4536V5.44196H20.3715ZM22.484 0.097588H24.6223C25.0471 0.097588 25.36 0.114809 25.5695 0.149252C25.779 0.186565 25.9627 0.258321 26.1292 0.37026C26.2928 0.482199 26.4306 0.631451 26.5396 0.815146C26.6487 1.00171 26.7032 1.20837 26.7032 1.44086C26.7032 1.69057 26.6372 1.92019 26.5023 2.12684C26.3674 2.33637 26.1837 2.49136 25.9541 2.59469C26.2784 2.68941 26.5282 2.85301 26.7032 3.07976C26.8783 3.30938 26.9644 3.57631 26.9644 3.8863C26.9644 4.13026 26.907 4.36562 26.7951 4.59524C26.6832 4.82486 26.5282 5.00856 26.3301 5.14633C26.1349 5.2841 25.8938 5.36733 25.6068 5.39891C25.4289 5.41613 24.9926 5.43048 24.3066 5.43622H22.4869V0.097588H22.484ZM23.5661 0.98449V2.21582H24.2722C24.6912 2.21582 24.9524 2.21008 25.0557 2.19573C25.2394 2.17564 25.3858 2.11249 25.492 2.00629C25.5982 1.90009 25.6499 1.76232 25.6499 1.59011C25.6499 1.42364 25.6039 1.2916 25.5121 1.18828C25.4202 1.08495 25.2853 1.0218 25.1074 1.00171C25.0012 0.99023 24.6941 0.98449 24.186 0.98449H23.5661ZM23.5661 4.53784H24.5649C24.9524 4.53784 25.1992 4.52636 25.3054 4.50627C25.4662 4.47756 25.5953 4.40581 25.6987 4.291C25.7991 4.17619 25.8508 4.02694 25.8508 3.83463C25.8508 3.6739 25.8135 3.53613 25.7331 3.42419C25.6556 3.31225 25.5437 3.22901 25.3973 3.18022C25.2509 3.12855 24.9294 3.10272 24.4386 3.10272H23.5661V4.53784ZM27.8714 5.44196V0.097588H30.1446C30.7158 0.097588 31.132 0.146382 31.3903 0.2411C31.6515 0.335817 31.8582 0.508031 32.0132 0.752001C32.1682 0.998841 32.2457 1.27725 32.2457 1.59298C32.2457 1.99481 32.128 2.32489 31.8926 2.58608C31.6573 2.84727 31.3071 3.01087 30.8392 3.07976C31.0717 3.21466 31.264 3.36391 31.4133 3.52752C31.5654 3.69112 31.7692 3.98101 32.0247 4.3972L32.6762 5.43909H31.3875L30.6125 4.27091C30.3341 3.85759 30.1447 3.5964 30.0413 3.48733C29.938 3.38113 29.8318 3.30651 29.717 3.26632C29.6022 3.22614 29.4185 3.20605 29.1716 3.20605H28.9535V5.43622H27.8714V5.44196ZM28.9535 2.35933H29.7514C30.2681 2.35933 30.5924 2.33637 30.7216 2.29332C30.8507 2.25026 30.9512 2.17277 31.0229 2.06657C31.0976 1.96037 31.132 1.82547 31.132 1.66473C31.132 1.48391 31.0832 1.3404 30.9885 1.22846C30.8938 1.11652 30.756 1.04763 30.5838 1.01893C30.4948 1.00745 30.2336 0.998841 29.7974 0.998841H28.9564V2.35933H28.9535ZM33.0378 2.80135C33.0378 2.256 33.1211 1.79964 33.2818 1.42938C33.4024 1.1567 33.5688 0.912734 33.7784 0.694596C33.9879 0.479329 34.2175 0.318596 34.4701 0.212397C34.803 0.0717558 35.1876 0 35.6239 0C36.4132 0 37.0418 0.24397 37.5154 0.734779C37.989 1.22559 38.2244 1.90583 38.2244 2.77839C38.2244 3.64233 37.989 4.3197 37.5211 4.80764C37.0533 5.29558 36.4247 5.53955 35.6383 5.53955C34.8432 5.53955 34.2089 5.29558 33.7411 4.81051C33.2732 4.32257 33.0378 3.65381 33.0378 2.80135ZM34.1515 2.76403C34.1515 3.36965 34.2921 3.82889 34.5705 4.14175C34.8518 4.4546 35.2049 4.60959 35.6354 4.60959C36.0659 4.60959 36.419 4.4546 36.6974 4.14462C36.9729 3.83463 37.1107 3.36965 37.1107 2.74681C37.1107 2.13258 36.9758 1.67622 36.706 1.37484C36.4362 1.07347 36.0803 0.921345 35.6325 0.921345C35.1876 0.921345 34.8289 1.07347 34.5562 1.37771C34.2864 1.69057 34.1515 2.1498 34.1515 2.76403ZM41.1405 0.097588H43.1095C43.5544 0.097588 43.8931 0.132031 44.1255 0.200916C44.4384 0.292764 44.7053 0.456367 44.9292 0.694596C45.1531 0.929955 45.3224 1.21698 45.4401 1.56141C45.5549 1.90296 45.6152 2.32489 45.6152 2.82431C45.6152 3.26345 45.5607 3.64232 45.4516 3.96092C45.3196 4.35127 45.1273 4.66413 44.8804 4.90523C44.6939 5.08892 44.4413 5.22956 44.1227 5.33289C43.8845 5.40752 43.5687 5.44483 43.1698 5.44483H41.1434V0.097588H41.1405ZM42.2226 0.998841V4.53784H43.0262C43.3248 4.53784 43.5429 4.52062 43.6749 4.48617C43.85 4.44312 43.9935 4.36849 44.1083 4.2623C44.2231 4.15897 44.3179 3.98675 44.3896 3.74852C44.4642 3.51029 44.4987 3.18309 44.4987 2.76977C44.4987 2.35646 44.4614 2.04074 44.3896 1.81973C44.3179 1.59872 44.2145 1.42651 44.0854 1.30309C43.9562 1.17967 43.7897 1.09643 43.5888 1.05051C43.4396 1.01606 43.1439 0.998841 42.7077 0.998841H42.2226ZM46.5308 5.44196V0.097588H50.486V1.00171H47.6129V2.18712H50.2851V3.09124H47.6129V4.53784H50.5922V5.44196H46.5308ZM0.716157 13.78V8.43561H2.98938C3.56056 8.43561 3.97674 8.48441 4.23506 8.57912C4.49625 8.67384 4.70291 8.84606 4.8579 9.09003C5.01289 9.33687 5.09039 9.61528 5.09039 9.931C5.09039 10.3328 4.97271 10.6629 4.73735 10.9241C4.50199 11.1853 4.15182 11.3489 3.68398 11.4178C3.91647 11.5527 4.10877 11.7019 4.25802 11.8655C4.41015 12.0291 4.61393 12.319 4.86938 12.7352L5.52093 13.7771H4.23219L3.45723 12.6089C3.17882 12.1956 2.98938 11.9344 2.88605 11.8254C2.78272 11.7192 2.67653 11.6445 2.56172 11.6044C2.44691 11.5642 2.26321 11.5441 2.01637 11.5441H1.79823V13.7771H0.716157V13.78ZM1.79823 10.6974H2.59616C3.1128 10.6974 3.43714 10.6744 3.5663 10.6313C3.69546 10.5883 3.79592 10.5108 3.86767 10.4046C3.9423 10.2984 3.97674 10.1635 3.97674 10.0028C3.97674 9.82194 3.92795 9.67842 3.83323 9.56649C3.73851 9.45455 3.60074 9.38566 3.42853 9.35696C3.33955 9.34548 3.07836 9.33974 2.64208 9.33974H1.8011V10.6974H1.79823ZM6.10358 13.78V8.43561H10.0588V9.33974H7.18853V10.5251H9.86072V11.4293H7.18853V12.8759H10.1678V13.78H6.10358ZM14.5019 11.8081L15.5466 12.1296C15.3859 12.718 15.119 13.1543 14.7459 13.4413C14.3727 13.7255 13.8991 13.869 13.3251 13.869C12.6161 13.869 12.0306 13.625 11.5742 13.1399C11.1179 12.6549 10.8883 11.9918 10.8883 11.1509C10.8883 10.2611 11.1179 9.56936 11.5771 9.07855C12.0364 8.58487 12.642 8.3409 13.3882 8.3409C14.0426 8.3409 14.5736 8.53607 14.9812 8.92068C15.2252 9.1503 15.406 9.47751 15.5294 9.90804L14.4617 10.1606C14.3986 9.88508 14.2665 9.66694 14.0656 9.50621C13.8647 9.34548 13.6207 9.26511 13.3337 9.26511C12.9376 9.26511 12.6161 9.40575 12.3693 9.69277C12.1225 9.97693 11.999 10.4362 11.999 11.0734C11.999 11.7479 12.1196 12.2301 12.3636 12.5142C12.6075 12.8012 12.9233 12.9447 13.3136 12.9447C13.6006 12.9447 13.8475 12.8529 14.0541 12.6721C14.2637 12.4855 14.4129 12.2014 14.5019 11.8081ZM16.5024 13.78V8.47867H17.5845V12.8759H20.2653V13.78H16.5024ZM25.845 13.78H24.6797L24.2176 12.563H22.0736L21.6287 13.78H20.4834L22.5586 8.43561H23.701L25.845 13.78ZM23.8675 11.6589L23.1241 9.68129L22.4036 11.6589H23.8675ZM26.4076 13.78V8.43561H28.0293L28.9879 12.0808L29.9351 8.43561H31.5597V13.78H30.5608L30.558 9.57222L29.5046 13.78H28.4656L27.4179 9.57222L27.4151 13.78H26.4076ZM37.4523 13.78H36.2869L35.8248 12.563H33.6808L33.2359 13.78H32.0907L34.1658 8.43561H35.3082L37.4523 13.78ZM35.4747 11.6589L34.7313 9.68129L34.0109 11.6589H35.4747ZM41.4476 11.8081L42.4924 12.1296C42.3317 12.718 42.0647 13.1543 41.6916 13.4413C41.3185 13.7255 40.8449 13.869 40.2708 13.869C39.5619 13.869 38.9764 13.625 38.52 13.1399C38.0636 12.6549 37.834 11.9918 37.834 11.1509C37.834 10.2611 38.0636 9.56936 38.5229 9.07855C38.9821 8.58487 39.5877 8.3409 40.334 8.3409C40.9884 8.3409 41.5194 8.53607 41.927 8.92068C42.1709 9.1503 42.3517 9.47751 42.4752 9.90804L41.4074 10.1606C41.3443 9.88508 41.2123 9.66694 41.0113 9.50621C40.8104 9.34548 40.5665 9.26511 40.2794 9.26511C39.8833 9.26511 39.5619 9.40575 39.315 9.69277C39.0682 9.97693 38.9448 10.4362 38.9448 11.0734C38.9448 11.7479 39.0653 12.2301 39.3093 12.5142C39.5533 12.8012 39.869 12.9447 40.2593 12.9447C40.5464 12.9447 40.7932 12.8529 40.9999 12.6721C41.2094 12.4855 41.3586 12.2014 41.4476 11.8081ZM43.3822 13.78V8.43561H44.4642V13.78H43.3822ZM45.2679 11.1394C45.2679 10.594 45.3511 10.1377 45.5119 9.7674C45.6324 9.49473 45.7989 9.25076 46.0084 9.03262C46.2179 8.81736 46.4476 8.65662 46.7001 8.55042C47.0331 8.40978 47.4177 8.33803 47.854 8.33803C48.6433 8.33803 49.2719 8.582 49.7455 9.07281C50.2191 9.56361 50.4544 10.2439 50.4544 11.1164C50.4544 11.9804 50.2191 12.6577 49.7512 13.1457C49.2834 13.6336 48.6548 13.8776 47.8683 13.8776C47.0733 13.8776 46.439 13.6336 45.9711 13.1485C45.5033 12.6606 45.2679 11.9918 45.2679 11.1394ZM46.3816 11.1021C46.3816 11.7077 46.5222 12.1669 46.8006 12.4798C47.0819 12.7926 47.4349 12.9476 47.8655 12.9476C48.296 12.9476 48.649 12.7926 48.9275 12.4826C49.203 12.1727 49.3408 11.7077 49.3408 11.0848C49.3408 10.4706 49.2059 10.0142 48.9361 9.71287C48.6663 9.41149 48.3104 9.25937 47.8626 9.25937C47.4177 9.25937 47.0589 9.41149 46.7863 9.71574C46.5193 10.0286 46.3816 10.4878 46.3816 11.1021ZM51.2983 13.78V8.43561H52.3459L54.5445 12.0177V8.43561H55.5433V13.78H54.4613L52.2942 10.2668V13.78H51.2983ZM56.6886 13.78V8.43561H60.6437V9.33974H57.7706V10.5251H60.4428V11.4293H57.7706V12.8759H60.7499V13.78H56.6886ZM61.3843 12.0464L62.4376 11.943C62.5008 12.2961 62.6271 12.5515 62.8222 12.718C63.0145 12.8845 63.2757 12.9648 63.6029 12.9648C63.9474 12.9648 64.2086 12.8902 64.3865 12.7438C64.5616 12.5975 64.6506 12.4252 64.6506 12.2301C64.6506 12.1038 64.6133 11.9976 64.5386 11.9057C64.464 11.8167 64.3349 11.7393 64.1512 11.6761C64.0249 11.6302 63.7407 11.5556 63.2901 11.4436C62.7132 11.3001 62.3113 11.1222 62.076 10.9126C61.7488 10.617 61.5852 10.2582 61.5852 9.83342C61.5852 9.56074 61.6627 9.30529 61.8148 9.06706C61.9698 8.82883 62.1908 8.64801 62.4807 8.52459C62.7706 8.40117 63.1179 8.33803 63.5283 8.33803C64.1971 8.33803 64.6994 8.48728 65.0381 8.78291C65.3767 9.08142 65.5518 9.47464 65.5719 9.97119L64.4898 10.0085C64.4439 9.73296 64.3463 9.53491 64.1942 9.41436C64.0421 9.29381 63.8182 9.23354 63.5168 9.23354C63.2069 9.23354 62.9629 9.29955 62.7878 9.42871C62.6759 9.51195 62.6185 9.62389 62.6185 9.76166C62.6185 9.88795 62.673 9.99702 62.7792 10.086C62.9141 10.2008 63.2442 10.3214 63.7694 10.4448C64.2918 10.5682 64.6793 10.6974 64.929 10.8294C65.1816 10.9614 65.3768 11.1422 65.5174 11.3719C65.658 11.6015 65.7298 11.8856 65.7298 12.2215C65.7298 12.5286 65.6466 12.8156 65.4743 13.0825C65.305 13.3495 65.0639 13.5504 64.7539 13.6795C64.4439 13.8087 64.0536 13.8747 63.5915 13.8747C62.917 13.8747 62.3974 13.7197 62.0358 13.4069C61.6684 13.0969 61.4531 12.6434 61.3843 12.0464Z" fill="#DAE2FF"/>
</svg>
