<svg width="32" height="32" viewBox="0 0 32 32" fill="none" xmlns="http://www.w3.org/2000/svg">
<path d="M25.5999 4.2666H6.39994C5.22127 4.2666 4.2666 5.22127 4.2666 6.39994V25.5999C4.2666 26.7786 5.22127 27.7333 6.39994 27.7333H25.5999C26.7786 27.7333 27.7333 26.7786 27.7333 25.5999V6.39994C27.7333 5.22127 26.7786 4.2666 25.5999 4.2666ZM11.6842 23.4666H8.53753V13.3418H11.6842V23.4666ZM10.0789 11.8943C9.06447 11.8943 8.2442 11.0719 8.2442 10.0597C8.2442 9.0474 9.06554 8.22607 10.0789 8.22607C11.0901 8.22607 11.9125 9.04847 11.9125 10.0597C11.9125 11.0719 11.0901 11.8943 10.0789 11.8943ZM23.4709 23.4666H20.3263V18.5429C20.3263 17.3685 20.305 15.8581 18.6911 15.8581C17.0538 15.8581 16.8021 17.137 16.8021 18.4575V23.4666H13.6575V13.3418H16.6762V14.7253H16.7189C17.1391 13.9295 18.1653 13.0901 19.6959 13.0901C22.8821 13.0901 23.4709 15.1871 23.4709 17.9135V23.4666Z" fill="#B1C5FF"/>
</svg>
