<?xml version="1.0" encoding="UTF-8"?>
<svg version="1.1" xmlns="http://www.w3.org/2000/svg" width="1536" height="1024">
<path d="M0 0 C506.88 0 1013.76 0 1536 0 C1536 337.92 1536 675.84 1536 1024 C1029.12 1024 522.24 1024 0 1024 C0 686.08 0 348.16 0 0 Z " fill="#FEE100" transform="translate(0,0)"/>
<path d="M0 0 C0.82064941 0.17144531 1.64129883 0.34289062 2.48681641 0.51953125 C37.64607029 7.91989613 72.28359989 23.37512071 98.74609375 47.95703125 C100.31167173 49.37609067 101.93036583 50.73782789 103.5859375 52.05078125 C122.41932035 67.25767129 135.63662115 94.29390273 138.80810547 117.79492188 C141.90788167 153.41474208 133.62695321 185.54413778 110.80664062 213.24389648 C108.58411433 215.87310264 106.30376087 218.4414453 104 221 C103.41863281 221.65355469 102.83726562 222.30710937 102.23828125 222.98046875 C82.00899035 244.43268908 53.38669038 257.64583261 26 267 C25.15888672 267.28858887 24.31777344 267.57717773 23.45117188 267.87451172 C8.30774022 272.97050405 -7.30387291 276.12867637 -23 279 C-24.45140381 279.27336182 -24.45140381 279.27336182 -25.93212891 279.55224609 C-46.56623393 283.285329 -67.74516941 282.36976404 -88.62469482 282.03710938 C-90.71603729 282.00443635 -92.80747925 281.9782695 -94.89892578 281.953125 C-126.00908496 281.51437441 -157.130266 275.66380721 -186 264 C-187.49536185 263.52675335 -188.99487319 263.066206 -190.5 262.625 C-206.55865209 257.39446761 -222.78595832 247.25801162 -236 237 C-237.32064453 235.98679687 -237.32064453 235.98679687 -238.66796875 234.953125 C-266.2045058 213.17820104 -282.55524802 185.68860207 -288.6875 151.125 C-291.68518642 121.64775018 -284.54747573 91.83854369 -266.5 68.125 C-265.35263502 66.73385309 -264.18509557 65.35914848 -263 64 C-261.93458984 62.77216797 -261.93458984 62.77216797 -260.84765625 61.51953125 C-258.59932524 58.97910937 -256.31237568 56.4821655 -254 54 C-253.38640625 53.33226562 -252.7728125 52.66453125 -252.140625 51.9765625 C-246.03308556 45.58191651 -239.07604349 40.26659271 -232 35 C-231.45053711 34.58492188 -230.90107422 34.16984375 -230.33496094 33.7421875 C-198.25481618 9.82193525 -156.15116464 -1.10693771 -117 -6 C-116.1219873 -6.11569336 -115.24397461 -6.23138672 -114.33935547 -6.35058594 C-76.18123395 -11.19309656 -37.44700403 -8.02112368 0 0 Z " fill="#0B0689" transform="translate(502,368)"/>
<path d="M0 0 C22.57971355 2.03968423 72.34551076 9.75730187 88 28 C88.3203125 31.36328125 88.3203125 31.36328125 88.125 35.3125 C87.89196879 40.40372544 87.9699047 44.27735726 90 49 C91.7142289 50.23396041 91.7142289 50.23396041 94 51 C95.03125 51.680625 96.0625 52.36125 97.125 53.0625 C101.49989819 55.62643815 106.02144496 55.79965573 111 56 C111.23074219 56.66386719 111.46148437 57.32773437 111.69921875 58.01171875 C113.92781061 64.04565323 115.81424095 69.06622827 122.00390625 71.92578125 C125.95456395 73.37550086 129.42623745 74.0656929 133.625 74.1875 C136.52751739 74.41849619 137.65723769 74.67801116 139.8046875 76.6953125 C140.94647135 78.12122689 142.08178197 79.55234602 143.2109375 80.98828125 C147.12720364 85.39194295 151.6866899 86.84351905 157.46484375 87.234375 C160.65509031 87.24823058 163.81514847 87.17720967 167 87 C167.37125 87.886875 167.7425 88.77375 168.125 89.6875 C171.14709749 95.0265389 175.21339043 98.11810835 181 100 C188.95730526 100.91297585 195.45810971 100.76863911 202.1328125 96.09375 C204 95 204 95 208 95 C210.34205301 95.97940398 212.67518826 96.98034573 215 98 C223.3426825 100.02782984 232.23457929 99.94041518 240 96 C240.928125 94.9171875 240.928125 94.9171875 241.875 93.8125 C245.09827408 91.06323681 248.21545631 91.83496263 252.31640625 91.9765625 C258.14657546 92.02748101 262.54754351 89.59985844 267 86 C267.7366795 84.63997631 268.4433625 83.26342768 269.125 81.875 C270.76346366 79.0010605 271.48447217 78.15667271 274.69921875 77.1796875 C276.7942505 76.89053632 278.89370071 76.63193023 280.99609375 76.40234375 C287.74986449 75.49774247 292.53744439 72.29077134 296.74609375 67.015625 C298.88076043 63.58419818 299.99397614 59.89172387 301 56 C302.051875 55.96132813 302.051875 55.96132813 303.125 55.921875 C311.02141944 55.44980645 317.40810683 54.17990202 322.875 48.125 C327.12741296 41.87145153 327.29865433 37.21474628 326 30 C325.67220184 28.66529507 325.33964417 27.33173974 325 26 C391.03657644 0 391.03657644 0 411 0 C412.2022624 26.98411167 402.39678796 49.11949896 384.53076172 69.14038086 C364.30897494 91.22953838 338.33261999 107.42956457 310 117 C308.52187789 117.52792534 307.04403945 118.05664527 305.56640625 118.5859375 C285.30350307 125.72380311 264.34201802 130.52968719 243 133 C241.7008667 133.1544458 241.7008667 133.1544458 240.37548828 133.31201172 C196.56637016 138.29873565 150.90042537 135.12618075 109 121 C108.34322266 120.77876465 107.68644531 120.5575293 107.00976562 120.32958984 C96.55783336 116.75406142 86.73433274 112.20488812 77 107 C76.39414062 106.67773438 75.78828125 106.35546875 75.1640625 106.0234375 C66.48674779 101.36269641 58.42741709 96.05242412 50.54736328 90.15673828 C49.20574365 89.15380458 47.8519617 88.16717971 46.49609375 87.18359375 C24.35080424 70.43411082 5.12354725 47.107624 0.26367188 19.1015625 C-0.53108441 12.76706054 -0.28346774 6.36227587 0 0 Z " fill="#00B8FC" transform="translate(222,490)"/>
<path d="M0 0 C1.08796875 0.39960938 2.1759375 0.79921875 3.296875 1.2109375 C4.38484375 1.58992188 5.4728125 1.96890625 6.59375 2.359375 C17.00294057 6.05675717 17.00294057 6.05675717 22.046875 8.2109375 C28.87180123 10.98356378 36.0052266 12.79693217 43.125 14.64257812 C45.02133411 15.13883103 46.90989498 15.66459937 48.796875 16.1953125 C64.41455971 20.1748187 80.3159306 19.13105362 95.7421875 14.98828125 C99.09638995 14.25477984 100.19244954 14.25300781 103.296875 15.2109375 C91.61859138 28.13567176 91.61859138 28.13567176 87.234375 31.7734375 C82.40143719 35.77122662 82.40143719 35.77122662 80.859375 41.6484375 C81.3934528 45.99735671 82.00989025 47.31526046 85.296875 50.2109375 C93.27869252 55.15514025 102.24859811 55.21828261 111.296875 54.2109375 C120.24496991 51.91845038 127.08511159 46.75918748 134.296875 41.2109375 C136.69950261 39.44118724 139.12161164 37.69948332 141.546875 35.9609375 C142.39644775 35.34279175 142.39644775 35.34279175 143.26318359 34.7121582 C151.37399188 28.87800579 158.98050848 23.95646733 169.296875 25.2109375 C177.71290296 27.1714099 184.02722653 32.49416188 190.57617188 37.82128906 C192.2953708 39.2097227 194.03351996 40.56958109 195.78125 41.921875 C203.22715382 47.68758183 210.48097599 53.64779543 217.62744141 59.77978516 C219.37188134 61.27523805 221.12111756 62.76493705 222.87109375 64.25390625 C228.07888263 68.69261831 233.25578698 73.14487714 238.296875 77.7734375 C242.09450906 81.22922234 246.04787271 84.39046854 250.109375 87.5234375 C270.76616214 103.64850886 270.76616214 103.64850886 271.921875 110.0859375 C271.81380056 113.22009625 270.99678335 115.1618519 269.109375 117.6484375 C264.35218362 121.98276743 260.60312741 122.91763399 254.21875 122.765625 C248.66850986 121.71196979 245.27419228 118.0127849 241.296875 114.2109375 C240.26757685 113.2583034 239.23623352 112.3078755 238.203125 111.359375 C236.5569844 109.84457016 234.9130717 108.32773502 233.27636719 106.80273438 C229.47986758 103.26891393 225.62653048 99.81710313 221.671875 96.4609375 C220.71023438 95.64109375 219.74859375 94.82125 218.7578125 93.9765625 C216.39541958 91.91946505 216.39541958 91.91946505 213.296875 92.2109375 C214.76634181 97.7082234 218.64400257 100.89299073 222.609375 104.7109375 C223.27388672 105.36191406 223.93839844 106.01289062 224.62304688 106.68359375 C225.91950948 107.95312686 227.21913992 109.21943459 228.5222168 110.48217773 C230.06012512 111.98031074 231.57521015 113.50180535 233.0859375 115.02734375 C235.35579362 117.34681495 235.35579362 117.34681495 238.359375 119.6484375 C242.27787085 123.06669984 244.88610395 126.02015857 245.859375 131.2109375 C244.88301325 136.41820018 241.7977906 139.13885493 237.671875 142.0859375 C232.68787481 143.7472709 228.47261533 144.39112005 223.296875 143.2109375 C220.02105006 141.13695743 217.4583791 138.5507202 214.78955078 135.75292969 C211.78004198 132.64398994 208.62346186 129.68781536 205.484375 126.7109375 C204.84983398 126.08751465 204.21529297 125.4640918 203.56152344 124.82177734 C199.1682366 120.56501142 199.1682366 120.56501142 193.296875 119.2109375 C194.74792749 123.91165244 197.5150031 126.93279131 200.859375 130.3984375 C201.94041512 131.5465823 203.02114092 132.69502312 204.1015625 133.84375 C205.16656059 134.96624649 206.23166065 136.08864624 207.296875 137.2109375 C209.0381556 139.05471648 210.76431497 140.90957824 212.484375 142.7734375 C213.19980469 143.53785156 213.91523438 144.30226563 214.65234375 145.08984375 C216.33627718 147.26175788 217.15951515 148.46923484 217.296875 151.2109375 C215.3005309 154.76833262 212.39180684 157.5482156 208.921875 159.6484375 C201.796875 161.17522321 201.796875 161.17522321 198.296875 160.2109375 C194.27598801 157.59856482 190.8202769 154.45129604 187.296875 151.2109375 C186.36617187 150.375625 185.43546875 149.5403125 184.4765625 148.6796875 C182.77225115 147.14928548 181.07596026 145.60986825 179.390625 144.05859375 C175.85440768 140.89722253 175.85440768 140.89722253 171.296875 140.2109375 C172.3961184 142.77583876 173.42530692 144.33936942 175.421875 146.3359375 C177.296875 148.2109375 177.296875 148.2109375 177.296875 150.2109375 C177.88082031 150.46101562 178.46476563 150.71109375 179.06640625 150.96875 C181.59379551 152.37629778 183.08991454 153.90792439 184.984375 156.0859375 C185.88736328 157.10300781 185.88736328 157.10300781 186.80859375 158.140625 C188.30453694 160.22159584 188.8758506 161.70724576 189.296875 164.2109375 C182.45891935 167.70265954 176.96220979 168.05216188 169.484375 166.3359375 C166.94828571 165.44084716 164.63809589 164.5220212 162.296875 163.2109375 C162.461875 162.4271875 162.626875 161.6434375 162.796875 160.8359375 C164.05498448 151.71464377 163.72212017 144.98896756 158.296875 137.2109375 C153.33893822 131.69918863 146.29396113 130.62414209 139.296875 129.2109375 C139.21050781 128.5096875 139.12414062 127.8084375 139.03515625 127.0859375 C137.91835429 119.54496279 136.45645341 113.44704215 130.23828125 108.609375 C123.92861925 104.90024693 118.48826738 104.89226418 111.30078125 105.5234375 C110.30949219 105.4203125 109.31820312 105.3171875 108.296875 105.2109375 C106.63671875 102.8515625 106.63671875 102.8515625 105.296875 100.2109375 C103.4062327 98.82968245 103.4062327 98.82968245 101.296875 97.9609375 C100.61625 97.64640625 99.935625 97.331875 99.234375 97.0078125 C95.63483373 95.52735601 92.79264421 95.04994962 88.921875 95.0234375 C87.51808594 95.00216797 87.51808594 95.00216797 86.0859375 94.98046875 C83.12802506 95.22489009 81.0095478 96.05494281 78.296875 97.2109375 C73.76314442 96.9784385 70.94957868 94.75194875 67.296875 92.2109375 C62.38329566 90.57307772 56.90770873 90.13588832 52.0390625 92.140625 C50.72962442 92.86255854 49.44058018 93.6237782 48.18359375 94.43359375 C45.48321721 95.54617125 44.07374119 95.074401 41.296875 94.2109375 C39.09576779 93.12776106 36.95148445 92.00393115 34.796875 90.8359375 C9.7111104 77.85171204 -17.7862213 69.92450462 -45.703125 66.2109375 C-43.27469403 39.06680634 -23.8197825 18.05564519 -4.703125 0.2109375 C-2.703125 -0.7890625 -2.703125 -0.7890625 0 0 Z " fill="#FCFCFD" transform="translate(269.703125,415.7890625)"/>
<path d="M0 0 C1.81177734 0.46986328 1.81177734 0.46986328 3.66015625 0.94921875 C9.37970355 2.47082282 14.57826847 4.12977795 19.78125 6.9296875 C43.99729137 18.61136943 78.47501676 20.6711403 104 12 C108.91211607 10.28441231 113.80797003 8.53047622 118.65673828 6.64257812 C119.53958496 6.30162109 120.42243164 5.96066406 121.33203125 5.609375 C122.11296143 5.29967773 122.8938916 4.98998047 123.69848633 4.67089844 C126.26675787 3.92223925 128.33787027 3.7874888 131 4 C132.80859375 5.35546875 132.80859375 5.35546875 134.4375 7.1875 C136.5087046 9.4783022 138.51317085 11.41712283 140.921875 13.375 C153.2105796 23.4673115 164.23075954 42.67680636 168 58 C168.1475413 61.00823752 168.11673701 63.99119768 168 67 C165.33411549 67.75286553 162.6673269 68.50227394 160 69.25 C159.27554687 69.45496094 158.55109375 69.65992188 157.8046875 69.87109375 C153.38844623 71.10614427 148.96276149 72.25408659 144.50318909 73.32337952 C135.63141932 75.46812515 126.9931048 78.12971883 118.34594727 81.04418945 C116.07010963 81.80993959 113.79028158 82.56276648 111.50976562 83.31445312 C103.01750066 86.14308033 94.71791955 89.20266112 86.56495667 92.91352844 C82.65668014 94.62045383 80.07869122 95.52487693 76 94 C73.4921875 92.03125 73.4921875 92.03125 70.875 89.5 C64.71649183 83.69694935 58.25770667 78.35878006 51.61328125 73.1171875 C46.43121524 69.02292708 41.41058328 64.78095454 36.4375 60.4375 C31.77499342 56.36647096 27.08288704 52.4023611 22.15234375 48.65625 C19.66104678 46.73917212 17.23805258 44.74958471 14.8125 42.75 C13.88695312 41.99460937 12.96140625 41.23921875 12.0078125 40.4609375 C10.45720432 39.19225808 8.9073443 37.92255561 7.37011719 36.63769531 C-2.8674988 28.09156296 -14.72035839 18.52954367 -28.734375 18.7890625 C-42.1066547 20.03406785 -52.23155256 28.79352195 -62.39501953 36.74951172 C-73.90285353 45.71560934 -81.9233451 50.5722088 -97 49 C-99.88623725 47.96951962 -101.56426283 46.90106316 -104 45 C-103.41956979 41.58822563 -102.34474086 39.99240739 -99.8671875 37.609375 C-98.91090454 36.67496582 -98.91090454 36.67496582 -97.93530273 35.72167969 C-97.25540283 35.07102539 -96.57550293 34.42037109 -95.875 33.75 C-89.90659921 27.98259018 -89.90659921 27.98259018 -84.4375 21.75 C-76.68321116 12.64368132 -66.00807409 5.45189993 -55 1 C-53.55947266 0.38318359 -53.55947266 0.38318359 -52.08984375 -0.24609375 C-36.24068696 -5.921938 -15.96361311 -4.77891603 0 0 Z " fill="#FCFCFD" transform="translate(462,415)"/>
<path d="M0 0 C0.91037018 -0.00100708 1.82074036 -0.00201416 2.75869751 -0.00305176 C18.89673805 0.00892074 34.69760007 0.92070444 50.6875 3.25 C51.71842773 3.39985352 52.74935547 3.54970703 53.81152344 3.70410156 C85.52321018 8.47757694 116.96626688 17.52171606 144.4375 34.4375 C145.09371338 34.84154053 145.74992676 35.24558105 146.42602539 35.66186523 C150.34809987 38.16415183 153.51682467 40.8433393 156.6875 44.25 C148.88234634 48.06654808 141.08070712 51.00284844 132.6875 53.25 C131.58148437 53.55164063 130.47546875 53.85328125 129.3359375 54.1640625 C117.84672594 56.88988431 106.42696925 56.72482114 94.6875 56.25 C93.59501953 56.21011963 93.59501953 56.21011963 92.48046875 56.16943359 C76.51938996 55.40207404 61.0613525 48.97289469 46.4375 42.9375 C33.23065782 37.49503872 20.59624639 36.06258009 6.4375 36 C5.28636719 35.979375 4.13523437 35.95875 2.94921875 35.9375 C-8.19095308 35.88726247 -17.89497436 37.97713901 -27.75 43.1875 C-28.41708984 43.52201172 -29.08417969 43.85652344 -29.77148438 44.20117188 C-32.81117669 45.7616074 -35.2528161 47.19725609 -37.83203125 49.4765625 C-41.17684056 51.86796947 -43.48234597 51.68337029 -47.5625 51.6875 C-55.38097718 51.87752609 -62.17046951 53.67994055 -69.5703125 56.09375 C-94.04991634 63.65738542 -126.34108539 53.39357683 -148.41796875 42.28125 C-149.04316406 41.9409375 -149.66835938 41.600625 -150.3125 41.25 C-148.89896341 37.00939022 -145.83273487 35.72954328 -142.1875 33.5 C-141.55457031 33.09523438 -140.92164063 32.69046875 -140.26953125 32.2734375 C-128.76619203 25.13649101 -116.393756 20.28600149 -103.53344727 16.24194336 C-101.3758587 15.5627703 -99.22393459 14.86759534 -97.07226562 14.16992188 C-82.71836309 9.55753807 -68.32770812 6.01788427 -53.4375 3.5625 C-52.22964844 3.35044922 -51.02179688 3.13839844 -49.77734375 2.91992188 C-33.29851733 0.16766267 -16.67031759 0.01299666 0 0 Z " fill="#00B8FC" transform="translate(426.3125,368.75)"/>
<path d="M0 0 C7.38520188 5.46132576 11.03395697 11.894746 13.32421875 20.71875 C13.84646801 25.24896071 13.86310623 29.72089544 13.8203125 34.27734375 C13.82176773 35.54288589 13.82322296 36.80842804 13.82472229 38.11231995 C13.82307078 40.77442295 13.81372924 43.43506528 13.79077148 46.09692383 C13.76241833 49.47328665 13.76512995 52.84874344 13.7778616 56.225173 C13.78657362 59.49261938 13.77133586 62.75992525 13.7578125 66.02734375 C13.76074814 67.2214537 13.76368378 68.41556366 13.76670837 69.64585876 C13.63026825 81.96029774 11.38805462 94.77554583 2.921875 104.27734375 C-7.43913627 113.62505318 -19.59664075 115.56804256 -33.03515625 115.125 C-42.39134505 114.51794801 -49.95755397 110.53194739 -56.6953125 104.11328125 C-60.21857647 99.85339799 -64.67578125 93.43800041 -64.67578125 87.71875 C-60.94702737 87.57314805 -57.21900691 87.48457957 -53.48828125 87.40625 C-52.43318359 87.36435547 -51.37808594 87.32246094 -50.29101562 87.27929688 C-42.3799229 87.15451623 -42.3799229 87.15451623 -38.6875 90.11328125 C-37.69169922 91.40298828 -37.69169922 91.40298828 -36.67578125 92.71875 C-32.09555702 95.70585276 -26.9481857 95.33093049 -21.67578125 94.71875 C-17.01587565 92.51588554 -13.65791517 89.51110935 -11.67578125 84.71875 C-10.4712478 80.08672437 -9.52721145 75.42741699 -8.67578125 70.71875 C-9.33578125 70.71875 -9.99578125 70.71875 -10.67578125 70.71875 C-10.88203125 71.29625 -11.08828125 71.87375 -11.30078125 72.46875 C-14.01758623 76.91443088 -18.85236387 79.12906033 -23.67578125 80.71875 C-34.27192041 81.92575818 -42.8169069 81.10875773 -51.67578125 74.71875 C-60.09474053 67.4663577 -65.80387676 56.45394129 -66.91308594 45.34130859 C-67.65633243 30.94565476 -67.24508382 15.91502478 -57.390625 4.35546875 C-41.64907454 -10.6689268 -17.92648054 -11.481953 0 0 Z " fill="#0A0385" transform="translate(940.67578125,524.28125)"/>
<path d="M0 0 C9.24054411 7.77045755 14.17142801 16.47388563 16.75 28.3125 C17.66475156 39.63775518 17.71108187 50.90236099 12.75 61.3125 C12.38777344 62.116875 12.02554688 62.92125 11.65234375 63.75 C7.37963607 72.32438288 0.79082413 78.95068094 -8.25 82.3125 C-15.05571097 84.53629591 -24.94200481 84.46576611 -31.75 82.1875 C-35.71915092 80.06116915 -39.23827176 77.69128262 -42.25 74.3125 C-42.25 73.6525 -42.25 72.9925 -42.25 72.3125 C-42.91 72.3125 -43.57 72.3125 -44.25 72.3125 C-44.23428955 73.22539795 -44.2185791 74.1382959 -44.20239258 75.07885742 C-44.1511303 78.4801201 -44.11358561 81.88096963 -44.08520508 85.2824707 C-44.07015934 86.75193782 -44.04971762 88.22136034 -44.02368164 89.69067383 C-43.98711045 91.8082177 -43.97023199 93.92516565 -43.95703125 96.04296875 C-43.9413208 97.31551514 -43.92561035 98.58806152 -43.90942383 99.89916992 C-44.27701368 103.58323713 -45.01024883 105.39987346 -47.25 108.3125 C-50.93087353 110.76641569 -53.69355588 110.54052759 -57.9375 110.4375 C-58.63939453 110.42847656 -59.34128906 110.41945313 -60.06445312 110.41015625 C-61.79311525 110.38663704 -63.52160145 110.35076713 -65.25 110.3125 C-65.3196589 99.12458546 -65.37289187 87.93672293 -65.40543652 76.74863529 C-65.42106012 71.55296707 -65.44223789 66.35744777 -65.47631836 61.16186523 C-65.50902983 56.14330529 -65.52687785 51.12488815 -65.53463173 46.10622978 C-65.54015412 44.19616894 -65.55093784 42.28611548 -65.56719017 40.3761158 C-65.5891213 37.69076058 -65.59196041 35.00598769 -65.59057617 32.32055664 C-65.601362 31.53939987 -65.61214783 30.7582431 -65.6232605 29.95341492 C-65.57196459 20.69422084 -62.5473128 13.08318711 -56.25 6.3125 C-40.9429005 -8.20698588 -18.09124553 -9.39353133 0 0 Z " fill="#0A0286" transform="translate(770.25,522.6875)"/>
<path d="M0 0 C1.27230469 0.01804687 2.54460937 0.03609375 3.85546875 0.0546875 C4.83128906 0.07789063 5.80710937 0.10109375 6.8125 0.125 C6.92880137 11.00025938 7.01742106 21.87536866 7.07156086 32.75112534 C7.09755693 37.80224463 7.13277071 42.85293569 7.18969727 47.90380859 C7.24437559 52.78624885 7.2739955 57.66827949 7.28688622 62.5510025 C7.29606222 64.4055958 7.31397958 66.26016892 7.34115028 68.11458588 C7.5217872 80.96449591 6.89514658 92.8275623 -2.54296875 102.671875 C-12.34837656 111.33603582 -24.27335737 114.04741146 -37.06640625 113.5 C-47.62657897 112.72226576 -55.73516373 108.59103542 -63.1875 101.125 C-70.82787073 92.14389114 -71.69840687 80.51217875 -71.625 69.1875 C-71.64498047 68.09759766 -71.66496094 67.00769531 -71.68554688 65.88476562 C-71.67843009 53.90722128 -68.35001876 43.09292859 -60.1875 34.125 C-51.85129699 27.00421803 -44.65686291 24.63576957 -33.734375 24.80859375 C-25.54354803 25.53927325 -20.24216846 28.87936051 -14.1875 34.125 C-14.17291748 33.36880371 -14.15833496 32.61260742 -14.14331055 31.83349609 C-14.06858 28.38849723 -13.97200072 24.94444079 -13.875 21.5 C-13.85244141 20.31019531 -13.82988281 19.12039063 -13.80664062 17.89453125 C-13.46215439 6.68307 -13.46215439 6.68307 -10.1875 2.125 C-6.4507157 -0.36618953 -4.44298181 -0.0815226 0 0 Z " fill="#0B0385" transform="translate(1218.1875,373.875)"/>
<path d="M0 0 C7.71036595 6.25812227 12.30929748 14.20219792 14 24 C15.39486591 39.13953848 14.87713024 53.34358708 5.625 66 C4.44815207 67.36120394 3.24110098 68.6971126 2 70 C1.19949219 70.86044922 1.19949219 70.86044922 0.3828125 71.73828125 C-8.12512161 79.94090672 -20.14520694 81.32864748 -31.43359375 81.2109375 C-42.38085978 80.56345408 -51.93012285 75.62134953 -59.375 67.625 C-68.73143512 56.29185324 -71.19145822 42.47952695 -70 28 C-68.30097726 16.40416979 -63.52509724 7.29836808 -54.50390625 -0.2421875 C-38.45889645 -11.50623494 -15.79088947 -11.36525046 0 0 Z " fill="#0B0385" transform="translate(1033,525)"/>
<path d="M0 0 C8.25017255 5.57831572 13.89219173 11.28807424 17.47265625 20.671875 C17.83746094 21.51878906 18.20226563 22.36570312 18.578125 23.23828125 C19.89616695 28.29749029 19.80114601 33.21560853 19.78515625 38.421875 C19.80126953 39.45570313 19.81738281 40.48953125 19.83398438 41.5546875 C19.84155653 53.57926668 16.54037486 63.79753507 8.50390625 72.90234375 C-0.90306304 81.98552243 -12.27652235 85.02722931 -25.04296875 84.8828125 C-34.41556431 84.31541322 -41.58166191 82.01489464 -48.52734375 75.671875 C-49.13191406 75.18074219 -49.73648437 74.68960938 -50.359375 74.18359375 C-57.90758476 67.55629847 -62.00066529 57.53725348 -62.6640625 47.63012695 C-63.27388229 34.15985285 -62.55151744 20.51934721 -53.52734375 9.671875 C-40.40069842 -4.48899087 -17.67650854 -9.26780124 0 0 Z " fill="#0A0385" transform="translate(1295.52734375,402.328125)"/>
<path d="M0 0 C0.84578613 0.00161133 1.69157227 0.00322266 2.56298828 0.00488281 C10.27407806 0.15686951 15.49673013 1.69185261 21.4375 6.6875 C23.53568852 8.60025097 23.53568852 8.60025097 26.0625 8.4375 C29.0415677 7.23168688 31.25558887 5.6393138 33.74609375 3.62890625 C41.93021643 -1.65701605 54.68391608 -0.9073189 63.90625 1.0625 C72.25790765 4.15570654 77.90513111 9.389999 81.6875 17.375 C84.29492012 24.1951679 83.94125681 30.9574532 83.8828125 38.18359375 C83.87907667 39.51880175 83.87623239 40.85401251 83.87423706 42.18922424 C83.86664541 45.68268566 83.84703606 49.17597755 83.8248291 52.66937256 C83.80427371 56.24244901 83.79521473 59.81555318 83.78515625 63.38867188 C83.76378532 70.38419073 83.72864028 77.37956974 83.6875 84.375 C77.4175 84.375 71.1475 84.375 64.6875 84.375 C64.67291748 82.80089355 64.65833496 81.22678711 64.64331055 79.60498047 C64.58527403 73.75660657 64.50804047 67.90861551 64.42504883 62.06054688 C64.39182486 59.53098775 64.36378511 57.00135495 64.34106445 54.47167969 C64.30747296 50.83236333 64.25515246 47.19372066 64.19921875 43.5546875 C64.19282883 42.42634491 64.1864389 41.29800232 64.17985535 40.13546753 C64.05752283 33.58042378 63.55091884 28.8609012 59.25 23.625 C55.35713696 20.51070957 51.89234076 19.88349764 47.0078125 19.98828125 C43.15460379 20.6304827 40.35291207 22.56930308 37.6875 25.375 C35.71426568 28.60552784 35.42037321 31.11954673 35.36865234 34.87792969 C35.34878265 35.97876892 35.32891296 37.07960815 35.30844116 38.21380615 C35.29688995 39.39621887 35.28533875 40.57863159 35.2734375 41.796875 C35.25407135 43.01199768 35.2347052 44.22712036 35.2147522 45.47906494 C35.15496194 49.36097184 35.10857254 53.2429084 35.0625 57.125 C35.02431978 59.75652337 34.98526802 62.38803424 34.9453125 65.01953125 C34.84926057 71.47125275 34.76522693 77.92303276 34.6875 84.375 C28.4175 84.375 22.1475 84.375 15.6875 84.375 C15.6781543 82.77060059 15.66880859 81.16620117 15.65917969 79.51318359 C15.61926723 73.55294163 15.55350351 67.59321512 15.47998047 61.63330078 C15.45177841 59.05524321 15.43056013 56.47709929 15.41650391 53.89892578 C15.39506491 50.18998025 15.34840604 46.48207207 15.296875 42.7734375 C15.29564636 41.62322113 15.29441772 40.47300476 15.29315186 39.28793335 C15.17899017 33.03137141 14.92522012 29.11447727 10.6875 24.375 C6.68653123 20.85899714 3.08894887 20.00942562 -2.25390625 20.09765625 C-6.7914082 20.70897055 -9.49120708 23.46669137 -12.44628906 26.73486328 C-15.56517049 31.59721307 -14.91603172 37.41784661 -14.921875 42.9921875 C-14.93841125 44.20448029 -14.95494751 45.41677307 -14.97198486 46.665802 C-15.02046186 50.5272529 -15.0418364 54.38830993 -15.0625 58.25 C-15.09065973 60.87241564 -15.12058715 63.49481295 -15.15234375 66.1171875 C-15.22622159 72.53642592 -15.27579875 78.95544572 -15.3125 85.375 C-21.9125 85.375 -28.5125 85.375 -35.3125 85.375 C-35.40337291 78.00276071 -35.47654219 70.63083462 -35.51974869 63.25815105 C-35.54050031 59.83358913 -35.56858503 56.40943483 -35.61425781 52.98510742 C-35.66659597 49.03569657 -35.68554794 45.08644271 -35.703125 41.13671875 C-35.72377014 39.92481369 -35.74441528 38.71290863 -35.76568604 37.46427917 C-35.76833492 27.29064772 -33.66024386 18.20901335 -27.1484375 10.16015625 C-19.48767045 2.71128276 -10.41333485 -0.02046244 0 0 Z " fill="#090286" transform="translate(740.3125,398.625)"/>
<path d="M0 0 C8.13767626 5.72651292 13.5678647 13.50907283 15.859375 23.171875 C16.79084383 29.92502405 16.609375 36.79228939 16.609375 43.609375 C-3.190625 43.609375 -22.990625 43.609375 -43.390625 43.609375 C-42.24699879 53.06678703 -42.24699879 53.06678703 -38.390625 57.609375 C-38.390625 58.269375 -38.390625 58.929375 -38.390625 59.609375 C-37.215 60.0734375 -37.215 60.0734375 -36.015625 60.546875 C-33.390625 61.609375 -33.390625 61.609375 -31.390625 62.609375 C-29.14406913 62.75914539 -26.89198732 62.83087674 -24.640625 62.859375 C-23.42890625 62.88515625 -22.2171875 62.9109375 -20.96875 62.9375 C-16.15099847 62.49569746 -12.81392409 61.03267409 -9.390625 57.609375 C-7.05224609 57.38232422 -7.05224609 57.38232422 -4.1640625 57.4140625 C-2.6171875 57.42373047 -2.6171875 57.42373047 -1.0390625 57.43359375 C0.04117188 57.45035156 1.12140625 57.46710938 2.234375 57.484375 C3.32234375 57.49339844 4.4103125 57.50242187 5.53125 57.51171875 C8.22417652 57.53534091 10.91666755 57.56827944 13.609375 57.609375 C10.60287773 67.03409035 5.46222523 73.20376916 -3.0625 78.1640625 C-14.26011626 83.29872073 -28.93412954 83.89203616 -40.640625 79.984375 C-43.109375 78.8671875 -43.109375 78.8671875 -45.390625 77.609375 C-46.1846875 77.17367187 -46.97875 76.73796875 -47.796875 76.2890625 C-57.24322461 70.52678924 -63.29151049 62.68196967 -66.07421875 51.98046875 C-68.73966741 39.05763834 -68.31369831 24.96048733 -61.703125 13.234375 C-48.40323655 -6.61766438 -20.85901661 -12.13367633 0 0 Z " fill="#0B0385" transform="translate(900.390625,404.390625)"/>
<path d="M0 0 C0.94294922 -0.020625 1.88589844 -0.04125 2.85742188 -0.0625 C12.16279347 -0.11366356 19.87301291 1.70773075 27.42578125 7.26171875 C33.34675949 13.50142459 35.07732576 18.94814765 35.01171875 27.453125 C35.01887405 28.41216736 35.02602936 29.37120972 35.03340149 30.35931396 C35.04114967 32.37966998 35.03622781 34.40011031 35.01928711 36.42041016 C35.00013443 39.47853512 35.03941533 42.53206279 35.08398438 45.58984375 C35.14003966 58.6005809 34.24811621 68.48480818 24.6875 78.1875 C12.3474969 87.84284593 -3.58722779 89.42693853 -18.6875 88.25 C-25.28863648 87.18717551 -30.11221717 85.15208875 -34.6875 80.25 C-39.63680091 72.26109629 -41.02771459 64.02494304 -39.19140625 54.7421875 C-37.43261245 48.87954149 -34.89542306 44.24747181 -29.61962891 40.96240234 C-23.20047537 37.60547712 -17.26820797 36.11908461 -10.125 35.125 C-3.02466887 34.08455544 3.58177523 32.78621513 10.3125 30.25 C10.38440552 29.25770386 10.38440552 29.25770386 10.45776367 28.24536133 C10.57210286 26.66748047 10.68644206 25.08959961 10.80078125 23.51171875 C10.50943582 21.06150378 10.50943582 21.06150378 8.265625 19.484375 C4.60351454 17.95365158 1.71374135 17.81643619 -2.25 17.8125 C-3.55066406 17.79316406 -4.85132813 17.77382813 -6.19140625 17.75390625 C-9.67943966 17.97758848 -9.67943966 17.97758848 -12.02734375 19.90234375 C-14.14456415 22.65601155 -14.14456415 22.65601155 -15.6875 28.25 C-22.6175 28.25 -29.5475 28.25 -36.6875 28.25 C-35.44390415 19.54482905 -33.96271372 12.02196332 -26.68359375 6.49609375 C-18.01313251 1.08341834 -10.03539677 0.05377306 0 0 Z " fill="#0C0485" transform="translate(1105.6875,398.75)"/>
<path d="M0 0 C5.1918608 5.73319226 6.24670517 10.56506465 6.14453125 18.05078125 C6.14598648 18.92245438 6.14744171 19.7941275 6.14894104 20.69221497 C6.14728799 22.53027702 6.13579351 24.36835376 6.11499023 26.20629883 C6.08619948 28.98255046 6.09436199 31.75686817 6.10742188 34.53320312 C6.09108424 48.00350465 5.73114886 59.99205257 -3.7265625 70.4453125 C-13.16019904 78.98050746 -22.98489476 80.34900546 -35.3515625 80.3203125 C-36.46273437 80.34867188 -37.57390625 80.37703125 -38.71875 80.40625 C-47.06613791 80.42589091 -54.08585235 78.8714497 -60.29296875 72.9765625 C-61.79790328 71.31698557 -63.11492724 69.68779886 -64.3515625 67.8203125 C-64.72410156 67.26988281 -65.09664062 66.71945312 -65.48046875 66.15234375 C-67.95513301 59.52734571 -67.61857254 49.69747199 -65.44140625 43.03515625 C-64.23657415 41.02452005 -63.01056803 39.47051694 -61.3515625 37.8203125 C-60.02125 36.4590625 -60.02125 36.4590625 -58.6640625 35.0703125 C-51.38299107 29.55082773 -42.35460805 28.0368409 -33.5390625 26.7578125 C-24.83966037 25.84474536 -24.83966037 25.84474536 -17.3515625 21.8203125 C-16.46769336 19.09733676 -16.71410107 16.59616728 -17.3515625 13.8203125 C-19.9835077 11.00685383 -22.81000677 9.95617843 -26.65625 9.6171875 C-33.50626849 9.4724667 -33.50626849 9.4724667 -39.3515625 12.8203125 C-41.70511589 15.93816363 -41.70511589 15.93816363 -42.3515625 20.8203125 C-49.6115625 20.8203125 -56.8715625 20.8203125 -64.3515625 20.8203125 C-64.05730834 13.07161974 -63.39330259 6.94925247 -58.3515625 0.8203125 C-41.88123517 -13.27507999 -17.05725147 -12.88941627 0 0 Z " fill="#0C0484" transform="translate(860.3515625,526.1796875)"/>
<path d="M0 0 C4.91228359 4.49632409 9.54101266 11.22969263 10.1328125 18.01171875 C10.06770833 19.93229167 10.00260417 21.85286458 9.9375 23.7734375 C2.57709083 24.57069652 -4.66010355 24.90229933 -12.0625 24.7734375 C-12.31644531 24.15855469 -12.57039063 23.54367187 -12.83203125 22.91015625 C-13.17621094 22.10191406 -13.52039062 21.29367187 -13.875 20.4609375 C-14.21144531 19.66042969 -14.54789063 18.85992187 -14.89453125 18.03515625 C-16.50718505 14.91232498 -18.17621707 13.25456252 -21.25 11.5859375 C-26.63155332 10.03126654 -30.5386258 10.19541625 -35.6875 12.1484375 C-41.02319466 15.53831691 -44.11497015 21.93084796 -46.0625 27.7734375 C-46.98532817 43.24170395 -46.98532817 43.24170395 -40.5625 56.8359375 C-36.61137756 59.89805739 -33.49337879 59.93330765 -28.625 59.9609375 C-27.49191406 59.97511719 -26.35882812 59.98929687 -25.19140625 60.00390625 C-21.78685118 59.95253115 -21.78685118 59.95253115 -18.0625 57.7734375 C-16.7425 54.4734375 -15.4225 51.1734375 -14.0625 47.7734375 C-6.1425 47.7734375 1.7775 47.7734375 9.9375 47.7734375 C7.66726418 57.98949869 7.66726418 57.98949869 5.625 61.9609375 C5.23699219 62.73824219 4.84898438 63.51554687 4.44921875 64.31640625 C-0.90687425 73.02178738 -8.54104787 77.46541067 -18.2265625 80.4375 C-20.2053487 80.74259919 -22.05861855 80.78041967 -24.0625 80.7734375 C-25.19429687 80.83273437 -26.32609375 80.89203125 -27.4921875 80.953125 C-39.1520305 81.35195263 -48.02936937 79.34360183 -57.0625 71.74609375 C-66.97346468 61.97063054 -70.27314887 48.78057181 -70.4375 35.2734375 C-70.49203273 23.23697397 -67.68224748 12.66744967 -59.0625 3.7734375 C-43.06588923 -11.17724103 -17.91056297 -12.97198862 0 0 Z " fill="#0B0385" transform="translate(1048.0625,406.2265625)"/>
<path d="M0 0 C4.23264656 1.6754226 6.13034258 3.86707307 8 8 C8.1875 10.8125 8.1875 10.8125 8 13 C8.66 13 9.32 13 10 13 C10.04125 12.443125 10.0825 11.88625 10.125 11.3125 C11.47552769 7.74324824 13.96577269 6.20130216 17 4 C18.9375 3.1875 18.9375 3.1875 21 3 C22.0725 2.896875 23.145 2.79375 24.25 2.6875 C29.50054056 3.12504505 33.64067608 5.03843739 37.69140625 8.40625 C39.78923969 10.96122326 39.69762844 13.79486144 40 17 C40.969375 16.34 41.93875 15.68 42.9375 15 C47.30122493 12.52281473 51.08313449 12.28640182 56 13 C61.25030419 14.63534065 64.02721475 16.38133794 67 21 C67.42578125 24.41015625 67.42578125 24.41015625 67.3125 28.0625 C67.27576172 29.87427734 67.27576172 29.87427734 67.23828125 31.72265625 C67.04957966 34.31807652 66.75849178 36.52719347 66 39 C66.54914063 38.84015625 67.09828125 38.6803125 67.6640625 38.515625 C73.17295838 37.29961454 78.92322789 37.37304993 84.3125 39 C88.50242366 42.11808272 92.25603909 45.81850864 93.48046875 51.0546875 C93.67871235 55.9069356 92.33261806 59.81737451 90 64 C85.6816721 68.20468769 81.60356973 70.07100493 75.625 70.375 C70.92738819 70.24212246 67.54314191 69.12900844 64 66 C60.49796561 61.69962951 59.44418858 57.44131017 59 52 C58.05125 52.66 57.1025 53.32 56.125 54 C51.52438241 56.61292682 47.17294472 56.85362124 42 56 C38.09713154 54.01308515 35.10654505 51.88047771 33 48 C32.3125 44.25 32.3125 44.25 32 41 C29.03824877 41.61277612 27.61941217 42.25372522 25 44 C19.21952801 44.68005553 14.59067034 43.55440164 10 40 C8.42209507 37.66296555 7.83864305 35.76258889 7 33 C6.773125 32.360625 6.54625 31.72125 6.3125 31.0625 C5.80434307 27.70866428 5.94352269 24.38863835 6 21 C4.7934375 22.0209375 4.7934375 22.0209375 3.5625 23.0625 C0.02085493 25.41522403 -2.7119925 25.30101136 -6.8203125 24.609375 C-11.16537412 23.39462659 -13.978613 21.19161816 -16.875 17.8125 C-18.4967557 13.75811074 -19.01521646 10.28646951 -18 6 C-13.83066929 -0.74248201 -7.27612224 -1.12633471 0 0 Z " fill="#FAFAFC" transform="translate(334,514)"/>
<path d="M0 0 C0 7.26 0 14.52 0 22 C-1.815 22.0825 -3.63 22.165 -5.5 22.25 C-12.57298225 22.85053623 -17.50228307 24.37419502 -22.4375 29.5625 C-24.70489286 33.09963287 -25.13284844 35.82011884 -25.20532227 39.93041992 C-25.22526749 40.93123093 -25.24521271 41.93204193 -25.26576233 42.96318054 C-25.28247482 44.04138565 -25.29918732 45.11959076 -25.31640625 46.23046875 C-25.33718735 47.33602615 -25.35796844 48.44158356 -25.37937927 49.5806427 C-25.44482332 53.1161979 -25.50373603 56.65182806 -25.5625 60.1875 C-25.6056901 62.58269008 -25.64930454 64.97787255 -25.69335938 67.37304688 C-25.80049948 73.24861842 -25.90227557 79.12426472 -26 85 C-29.64581687 85.02887512 -33.29160463 85.04675585 -36.9375 85.0625 C-38.49887695 85.07506836 -38.49887695 85.07506836 -40.09179688 85.08789062 C-41.08115234 85.09111328 -42.07050781 85.09433594 -43.08984375 85.09765625 C-44.46450806 85.10551147 -44.46450806 85.10551147 -45.86694336 85.11352539 C-48 85 -48 85 -49 84 C-49.10881473 82.4986665 -49.14903901 80.99228367 -49.16113281 79.48706055 C-49.17074036 78.52483078 -49.1803479 77.56260101 -49.19024658 76.57121277 C-49.19449646 75.52032974 -49.19874634 74.46944672 -49.203125 73.38671875 C-49.20882507 72.30679153 -49.21452515 71.22686432 -49.22039795 70.11421204 C-49.22987205 67.81662989 -49.23639143 65.51903401 -49.24023438 63.22143555 C-49.24985362 59.74047156 -49.2808179 56.2601199 -49.3125 52.77929688 C-49.31903858 50.54427433 -49.32428568 48.30924756 -49.328125 46.07421875 C-49.3404718 45.04560226 -49.3528186 44.01698578 -49.36553955 42.9571991 C-49.32829368 30.58488178 -46.68210724 18.7758912 -37.7734375 9.7421875 C-25.8938978 -0.47798793 -15.02843915 -0.4263387 0 0 Z " fill="#0E0683" transform="translate(975,399)"/>
<path d="M0 0 C5.95199382 3.21362404 8.43481178 8.04458882 10.7421875 14.234375 C11.5546875 17.234375 11.5546875 17.234375 11.7421875 20.234375 C11.8040625 20.93691406 11.8659375 21.63945312 11.9296875 22.36328125 C12.35101921 30.56608293 10.55553852 39.22337255 5.796875 46.0078125 C2.47515698 49.60739287 -0.93680607 50.96197392 -5.6875 51.51953125 C-11.17069319 51.71119302 -15.51145267 51.21248313 -20.2578125 48.234375 C-27.80720359 39.3196685 -28.11712309 28.38337901 -27.2578125 17.234375 C-25.67958287 9.52302518 -21.75140205 4.59454704 -15.2578125 0.234375 C-10.23829727 -1.43879674 -5.0623248 -1.71663609 0 0 Z " fill="#FADD02" transform="translate(1282.2578125,416.765625)"/>
<path d="M0 0 C6.24950042 4.21161985 9.1940932 8.55545309 10.875 15.9375 C11.73213158 26.23421052 11.66051987 36.5603513 5 44.9375 C1.97169162 48.37951172 -1.28304831 49.7069209 -5.80859375 50.2734375 C-11.76043859 50.35786083 -15.55829211 50.17005853 -20.125 45.9375 C-27.24543001 37.23475221 -26.82915675 26.60987574 -26.125 15.9375 C-25.02200775 10.19849345 -22.24498608 5.96385004 -18.125 1.9375 C-12.00854567 -1.52464396 -6.70759637 -2.28058276 0 0 Z " fill="#FADE02" transform="translate(1013.125,537.0625)"/>
<path d="M0 0 C5.3229159 1.7743053 9.08353478 5.25635174 12 10 C14.02131834 15.53456212 14.36576215 20.62227536 14.375 26.4375 C14.39949219 27.24509766 14.42398438 28.05269531 14.44921875 28.88476562 C14.4847384 36.23141283 12.29030019 41.29862028 7.5625 46.875 C2.73872056 50.87520734 -1.41858896 51.45343041 -7.56640625 51.31640625 C-12.41194479 50.68640846 -15.09614457 48.00428381 -18.25 44.5 C-22.41357123 38.55204111 -22.36605126 33.88214582 -22.375 26.75 C-22.39949219 25.73808594 -22.42398438 24.72617187 -22.44921875 23.68359375 C-22.47861916 16.12768783 -21.27120003 10.63696712 -16.1484375 4.94140625 C-15.56320312 4.48636719 -14.97796875 4.03132812 -14.375 3.5625 C-13.78460937 3.08941406 -13.19421875 2.61632812 -12.5859375 2.12890625 C-8.60833154 -0.7024438 -4.73218861 -0.42437563 0 0 Z " fill="#FBDF01" transform="translate(750,536)"/>
<path d="M0 0 C4.81628458 2.43414815 6.75132103 5.5166674 8.99609375 10.3515625 C10.36700437 14.86954283 10.21864042 19.35483872 10.24609375 24.0390625 C10.26671875 24.89951172 10.28734375 25.75996094 10.30859375 26.64648438 C10.34659611 32.9501257 9.8941222 39.923753 5.64990234 44.94384766 C0.28650472 49.66315793 -4.6054373 50.82964646 -11.5703125 50.6640625 C-16.5736212 50.02158305 -19.17215735 47.36814449 -22.25390625 43.6015625 C-26.93385551 34.91022817 -27.29605771 24.84503249 -25.38671875 15.25 C-23.28883753 8.51078865 -19.91972085 4.21445581 -14.00390625 0.3515625 C-9.3913166 -1.18596738 -4.68339026 -1.51548301 0 0 Z " fill="#FADE02" transform="translate(922.00390625,536.6484375)"/>
<path d="M0 0 C6.24439991 3.06543268 9.72138392 7.699012 12.36938477 14.04907227 C15.0916397 22.4708838 13.64950316 34.06155082 10 42 C7.45968075 46.0645108 5.50160002 47.541381 1 49 C-5.12740521 49.75325076 -11.9801596 50.58429022 -17.125 46.625 C-23.76504962 39.3797813 -24.61335009 31.07037536 -24.31640625 21.55859375 C-23.60190185 13.52262446 -21.14132285 7.4205808 -15 2 C-10.35079354 -0.92655312 -5.31091345 -0.62435993 0 0 Z " fill="#FADD02" transform="translate(1192,418)"/>
<path d="M0 0 C0.66 0 1.32 0 2 0 C2.75719513 16.34279498 2.75719513 16.34279498 -2 22 C-8.13875155 26.60406366 -15.55156463 27.03506868 -23 26 C-26.10321383 24.35416594 -26.40581793 23.36549547 -28 20 C-28.49339862 15.38955389 -27.65140827 12.07017073 -25.25 8.125 C-19.05636154 4.07531331 -11.51613371 3.21272946 -4.25 2.4375 C-2.64125 2.2209375 -2.64125 2.2209375 -1 2 C-0.67 1.34 -0.34 0.68 0 0 Z " fill="#F6DB04" transform="translate(1115,444)"/>
<path d="M0 0 C0.66 0 1.32 0 2 0 C2.91630451 15.63826371 2.91630451 15.63826371 -1.63671875 21.55078125 C-5.42724344 25.58025019 -8.41090907 26.78541502 -13.875 27.23828125 C-14.90625 27.26277344 -15.9375 27.28726563 -17 27.3125 C-18.03125 27.34988281 -19.0625 27.38726563 -20.125 27.42578125 C-23 27 -23 27 -25.33984375 25.25390625 C-27.66222806 22.10092802 -27.63566538 20.05998552 -27.44140625 16.25 C-26.68149614 12.37647591 -24.92413952 10.55862208 -22 8 C-15.11192547 4.61858159 -7.48704084 3.48268646 0 2 C0 1.34 0 0.68 0 0 Z " fill="#F7DC04" transform="translate(842,563)"/>
<path d="M0 0 C5.8363898 4.37729235 7.46321544 7.74625402 9.5 14.875 C-2.71 14.875 -14.92 14.875 -27.5 14.875 C-26.36954662 6.96182635 -26.36954662 6.96182635 -23.6875 4.0625 C-23.18605469 3.49917969 -22.68460938 2.93585938 -22.16796875 2.35546875 C-16.20844718 -2.93413002 -7.2238126 -2.32193976 0 0 Z " fill="#FADD02" transform="translate(884.5,418.125)"/>
<path d="M0 0 C0.99 0.33 1.98 0.66 3 1 C-0.17320782 4.53586014 -2.16743695 6.58578031 -7 7 C-4.66666667 4.66666667 -2.33333333 2.33333333 0 0 Z " fill="#E6D20D" transform="translate(1035,594)"/>
<path d="M0 0 C0.66 0.33 1.32 0.66 2 1 C1.32829194 4.8063457 0.27253436 8.35206816 -1 12 C-1.33 12 -1.66 12 -2 12 C-1.85904936 10.3745692 -1.71207913 8.74965949 -1.5625 7.125 C-1.48128906 6.22007812 -1.40007813 5.31515625 -1.31640625 4.3828125 C-1 2 -1 2 0 0 Z " fill="#241A75" transform="translate(798,534)"/>
<path d="M0 0 C0.99 0.33 1.98 0.66 3 1 C-2.75 6 -2.75 6 -5 6 C-3.86525052 2.59575156 -3.03188696 1.78346291 0 0 Z " fill="#01AAF2" transform="translate(281,404)"/>
<path d="M0 0 C0 4.24645065 -1.81750806 6.38524772 -4 10 C-4.66 9.67 -5.32 9.34 -6 9 C-4.02 6.03 -2.04 3.06 0 0 Z " fill="#1F1679" transform="translate(1158,408)"/>
<path d="M0 0 C0 3.59857954 -0.95830515 5.09451118 -3 8 C-3.66 8 -4.32 8 -5 8 C-3.8141763 4.62496331 -2.72426311 2.35277269 0 0 Z " fill="#1A1377" transform="translate(801,562)"/>
</svg>
