<svg width="32" height="32" viewBox="0 0 32 32" fill="none" xmlns="http://www.w3.org/2000/svg">
<path d="M25.5999 4.2666H6.39993C5.22127 4.2666 4.2666 5.22127 4.2666 6.39993V25.5999C4.2666 26.7786 5.22127 27.7333 6.39993 27.7333H25.5999C26.7786 27.7333 27.7333 26.7786 27.7333 25.5999V6.39993C27.7333 5.22127 26.7775 4.2666 25.5999 4.2666ZM24.2015 14.3722C24.0629 14.385 23.9231 14.3935 23.7823 14.3935C22.1877 14.3935 20.7861 13.5743 19.9701 12.3338C19.9701 15.5861 19.9701 19.2874 19.9701 19.3493C19.9701 22.2133 17.6479 24.5343 14.785 24.5343C11.9221 24.5333 9.59993 22.2111 9.59993 19.3482C9.59993 16.4842 11.9221 14.1631 14.785 14.1631C14.8938 14.1631 14.9994 14.1727 15.105 14.1791V16.7349C14.9983 16.7221 14.8949 16.7029 14.785 16.7029C13.3237 16.7029 12.1386 17.8879 12.1386 19.3493C12.1386 20.8106 13.3226 21.9957 14.785 21.9957C16.2474 21.9957 17.5381 20.8437 17.5381 19.3823C17.5381 19.3237 17.5637 7.46767 17.5637 7.46767H20.0053C20.2346 9.65113 21.9978 11.3749 24.2015 11.5327V14.3722Z" fill="#B1C5FF"/>
</svg>
