<?xml version="1.0" standalone="no"?>
<!DOCTYPE svg PUBLIC "-//W3C//DTD SVG 20010904//EN"
 "http://www.w3.org/TR/2001/REC-SVG-20010904/DTD/svg10.dtd">
<svg version="1.0" xmlns="http://www.w3.org/2000/svg"
 width="1024.000000pt" height="1024.000000pt" viewBox="0 0 1024.000000 1024.000000"
 preserveAspectRatio="xMidYMid meet">
<metadata>
Created by potrace 1.16, written by Peter Selinger 2001-2019
</metadata>
<g transform="translate(0.000000,1024.000000) scale(0.100000,-0.100000)"
fill="#000000" stroke="none">
<path d="M4798 9913 c-27 -4 -28 -7 -28 -60 l0 -56 113 6 c61 4 145 7 185 7
l72 0 0 55 0 55 -157 -1 c-87 -1 -170 -4 -185 -6z"/>
<path d="M5470 9856 l0 -53 85 -7 c47 -4 127 -13 177 -21 51 -7 94 -12 96 -11
1 2 5 26 9 53 l5 50 -73 11 c-86 14 -244 32 -276 32 -21 0 -23 -5 -23 -54z"/>
<path d="M4275 9845 c-60 -13 -126 -24 -145 -25 -55 -1 -63 -10 -55 -64 4 -26
14 -50 21 -53 7 -3 53 4 101 15 48 11 125 26 171 34 l84 13 -7 45 c-4 25 -9
48 -12 53 -7 11 -38 7 -158 -18z"/>
<path d="M6160 9760 c-7 -28 -11 -53 -9 -54 2 -2 49 -16 104 -31 55 -14 130
-36 168 -48 78 -24 87 -20 94 45 l5 43 -159 44 c-87 24 -165 46 -174 48 -13 3
-20 -8 -29 -47z"/>
<path d="M3680 9705 c-25 -7 -76 -25 -115 -39 -38 -15 -91 -35 -117 -44 -27
-9 -48 -21 -48 -26 0 -26 22 -88 33 -92 7 -2 64 16 127 41 63 25 122 45 131
45 33 0 79 22 79 38 0 34 -21 92 -33 91 -7 0 -32 -7 -57 -14z"/>
<path d="M6827 9584 c-3 -11 -9 -35 -12 -56 -7 -35 -6 -36 26 -43 19 -4 80
-29 137 -56 57 -27 118 -51 136 -54 31 -6 33 -5 50 40 10 25 17 47 15 48 -2 1
-18 10 -36 20 -17 9 -36 17 -43 17 -6 0 -55 21 -108 46 -117 55 -158 65 -165
38z"/>
<path d="M3010 9436 c-36 -19 -87 -45 -115 -58 -27 -14 -69 -37 -92 -51 l-43
-27 22 -45 c12 -25 27 -45 33 -45 6 0 32 14 58 30 26 17 52 30 57 30 9 0 152
75 189 99 12 7 11 16 -5 55 -10 25 -23 46 -29 46 -5 0 -39 -16 -75 -34z"/>
<path d="M4845 9379 c-159 -12 -329 -34 -489 -64 -72 -13 -156 -29 -186 -35
-30 -5 -127 -31 -215 -56 -146 -42 -198 -60 -425 -144 -66 -24 -158 -65 -295
-130 -132 -64 -392 -214 -465 -268 -19 -15 -47 -34 -61 -42 -85 -49 -365 -270
-474 -375 -28 -27 -83 -80 -121 -117 -96 -93 -264 -276 -307 -335 -63 -85
-173 -230 -184 -241 -8 -8 -21 -28 -29 -45 -9 -18 -24 -40 -33 -51 -27 -31
-137 -215 -192 -321 -28 -55 -57 -107 -65 -116 -7 -8 -19 -31 -25 -50 -6 -19
-27 -65 -46 -104 -36 -71 -104 -243 -148 -370 -22 -63 -45 -139 -104 -336 -10
-36 -22 -88 -26 -115 -4 -27 -20 -114 -35 -194 -56 -291 -65 -396 -65 -760 1
-288 4 -358 23 -496 23 -176 60 -378 93 -519 29 -121 133 -458 149 -480 4 -5
19 -44 33 -85 34 -104 181 -413 213 -451 8 -8 14 -23 14 -31 0 -9 15 -38 33
-64 19 -27 53 -83 77 -124 24 -41 56 -91 72 -110 15 -19 28 -39 28 -45 0 -6 8
-20 18 -31 10 -10 45 -57 79 -104 34 -47 72 -96 85 -110 12 -13 34 -40 47 -60
13 -19 36 -48 52 -65 16 -16 55 -59 87 -94 84 -94 291 -299 336 -332 22 -16
45 -38 53 -48 7 -11 28 -29 47 -41 19 -11 48 -33 64 -48 64 -59 287 -217 412
-291 47 -27 100 -61 119 -75 19 -15 42 -26 52 -26 9 0 27 -8 40 -18 49 -38
292 -155 444 -214 190 -74 432 -153 560 -182 450 -102 730 -132 1140 -123 270
6 474 27 664 68 53 11 141 29 196 39 55 10 152 35 215 55 63 20 146 46 183 56
37 11 111 37 164 59 52 22 100 40 106 40 9 0 51 20 277 128 127 61 349 188
435 249 22 15 54 37 71 48 90 57 216 154 362 277 81 69 412 400 480 480 148
175 275 351 388 538 31 52 65 106 76 119 10 13 18 30 18 38 0 8 8 27 18 41 35
51 182 353 196 402 7 24 23 65 56 145 18 42 25 64 84 255 54 174 68 235 121
527 55 299 75 653 56 943 -18 261 -36 387 -111 765 -13 66 -93 325 -137 445
-19 52 -45 124 -58 160 -13 36 -43 106 -68 155 -24 50 -48 101 -52 114 -4 13
-21 47 -38 75 -16 28 -47 85 -69 126 -48 92 -143 248 -168 275 -10 11 -29 39
-42 61 -38 67 -173 247 -270 358 -153 176 -402 426 -450 452 -16 8 -28 18 -28
23 0 9 -180 153 -250 201 -19 13 -53 39 -74 57 -22 18 -45 33 -51 33 -7 0 -30
14 -51 31 -22 17 -70 49 -109 71 -38 22 -93 56 -122 74 -28 19 -56 34 -61 34
-6 0 -48 22 -94 49 -45 27 -94 52 -108 56 -14 4 -56 23 -95 42 -161 81 -639
243 -805 273 -36 6 -101 18 -145 26 -288 55 -465 73 -745 78 -124 3 -279 1
-345 -5z m1028 -1569 l-113 -110 -105 0 c-83 0 -105 3 -105 14 0 7 20 42 44
77 23 35 51 79 60 97 l17 32 157 0 157 -1 -112 -109z m-893 -380 l0 -130 -180
0 -180 0 0 -450 0 -450 -160 0 -160 0 0 450 0 450 -175 0 -175 0 0 130 0 130
515 0 515 0 0 -130z m480 -259 c0 -251 4 -400 11 -418 13 -34 55 -80 91 -99
40 -21 136 -28 187 -14 24 6 60 27 82 48 55 51 59 87 59 515 l0 357 160 0 160
0 -1 -377 c0 -208 -4 -398 -9 -423 -4 -25 -12 -63 -16 -85 -14 -82 -109 -194
-204 -245 -130 -69 -468 -70 -605 -2 -97 48 -177 146 -219 267 -19 56 -20 88
-24 463 l-3 402 165 0 166 0 0 -389z m-951 -1300 c54 -11 114 -27 133 -37 109
-56 197 -160 238 -279 26 -75 37 -298 22 -431 -17 -145 -81 -263 -188 -344
-99 -75 -196 -101 -379 -103 -188 -2 -312 29 -398 101 -21 17 -42 32 -47 32
-15 0 -92 132 -117 202 -24 64 -27 92 -31 232 -5 195 5 252 65 374 37 73 59
103 102 141 74 63 139 95 231 110 41 7 80 15 85 16 33 11 199 2 284 -14z
m1347 0 c118 -23 197 -74 255 -164 22 -33 36 -64 32 -68 -5 -4 -62 -36 -127
-70 -85 -45 -121 -59 -124 -49 -11 31 -74 87 -110 98 -48 15 -144 15 -193 2
-50 -14 -123 -81 -144 -132 -23 -57 -26 -327 -5 -403 19 -66 90 -138 154 -154
138 -35 251 5 297 104 34 74 33 75 -86 75 l-105 0 0 115 0 115 245 0 245 0 0
-320 0 -320 -105 0 -105 0 0 28 c0 45 -12 103 -21 100 -4 -2 -32 -26 -61 -54
-67 -64 -76 -69 -177 -89 -88 -18 -156 -16 -261 10 -76 18 -88 24 -156 74 -56
42 -89 82 -141 170 -33 56 -63 223 -63 349 1 102 24 252 48 314 21 53 98 146
155 187 73 52 90 59 202 81 118 23 238 24 351 1z m1353 -6 c86 -19 115 -32
187 -89 94 -74 151 -183 170 -326 16 -118 17 -198 3 -314 -13 -107 -26 -148
-81 -238 -43 -72 -132 -148 -213 -180 -137 -56 -424 -56 -570 -1 -58 21 -173
110 -192 147 -8 17 -21 38 -28 46 -6 8 -25 47 -41 85 -29 70 -29 71 -29 280 0
193 2 215 22 269 32 84 101 195 133 211 14 7 33 21 40 30 25 30 124 71 200 84
41 7 80 15 85 17 23 9 246 -6 314 -21z m-4149 -455 l0 -450 285 0 285 0 0
-130 0 -130 -450 0 -450 0 0 580 0 580 165 0 165 0 0 -450z m4303 -902 c-4 -7
-53 -57 -109 -110 l-100 -98 -107 0 c-60 0 -107 4 -107 9 0 6 25 46 55 91 30
45 57 91 60 101 6 18 18 19 161 19 122 0 153 -3 147 -12z m-2397 -346 c95 -23
110 -30 186 -90 63 -49 123 -140 154 -232 16 -47 19 -86 18 -265 0 -194 -2
-214 -23 -265 -39 -95 -102 -190 -143 -216 -21 -13 -38 -30 -38 -37 0 -7 15
-35 33 -62 19 -28 46 -71 60 -97 l27 -48 -129 0 -128 0 -26 38 c-14 20 -31 49
-37 63 l-12 25 -141 0 c-84 -1 -171 5 -212 13 -110 22 -250 104 -282 164 -9
18 -24 43 -34 57 -10 14 -31 59 -45 100 -26 71 -27 84 -27 270 0 221 7 255 83
380 37 62 114 135 176 168 24 13 133 42 199 53 76 12 251 3 341 -19z m-1260
-89 c14 -49 48 -149 75 -225 27 -75 49 -143 49 -150 0 -8 25 -82 55 -164 30
-82 55 -156 55 -165 0 -9 18 -65 41 -125 22 -60 49 -139 59 -176 l19 -68 -158
0 -158 0 -24 73 -24 72 -220 0 -219 0 -24 -72 -24 -73 -154 0 c-89 0 -154 4
-154 9 0 6 20 63 43 128 24 65 47 132 51 148 3 17 28 93 54 170 27 77 75 221
107 320 32 99 74 226 93 283 l35 102 198 0 198 0 27 -87z m2166 -310 c3 -451
1 -438 87 -498 40 -28 49 -30 129 -30 78 0 91 3 130 28 85 55 82 39 82 495 l0
402 160 0 160 0 0 -389 c0 -297 -3 -407 -14 -464 -22 -113 -80 -196 -184 -263
-99 -64 -302 -89 -481 -59 -113 19 -136 27 -196 67 -65 44 -81 60 -117 118
-71 112 -70 110 -76 573 l-4 417 160 0 161 0 3 -397z m1358 -183 l0 -580 -160
0 -160 0 0 580 0 580 160 0 160 0 0 -580z"/>
<path d="M4215 5618 c-39 -14 -92 -63 -115 -108 -30 -58 -43 -151 -38 -267 6
-133 31 -205 88 -257 45 -41 92 -56 175 -56 83 0 130 15 175 56 66 60 84 122
84 294 0 126 -3 152 -22 200 -25 63 -80 122 -131 139 -42 14 -175 13 -216 -1z"/>
<path d="M6878 5616 c-39 -14 -86 -56 -107 -94 -46 -86 -57 -307 -21 -423 23
-76 79 -140 138 -157 48 -15 154 -15 204 -2 49 14 103 66 128 123 27 60 43
194 35 282 -13 143 -59 229 -139 266 -49 22 -182 25 -238 5z"/>
<path d="M4637 3926 c-52 -19 -113 -89 -134 -156 -14 -43 -18 -88 -17 -200 0
-125 3 -153 22 -200 37 -94 113 -150 203 -150 38 0 50 14 30 36 -5 5 -25 39
-45 77 l-36 67 130 0 129 0 16 -31 c20 -38 36 -33 55 17 23 62 21 323 -4 393
-23 68 -86 135 -141 150 -54 15 -161 13 -208 -3z"/>
<path d="M3431 3748 c-17 -57 -31 -108 -31 -113 0 -6 -16 -59 -35 -119 -19
-60 -35 -113 -35 -118 0 -4 65 -8 145 -8 80 0 145 3 145 8 0 4 -20 70 -44 147
-25 77 -55 177 -67 223 -12 45 -27 82 -34 82 -6 0 -26 -46 -44 -102z"/>
<path d="M7448 9261 c-10 -20 -18 -42 -18 -48 0 -6 28 -25 63 -43 34 -19 82
-48 107 -65 25 -18 65 -43 89 -56 l43 -24 29 35 c16 19 28 42 27 50 -5 23
-280 190 -313 190 -5 0 -18 -18 -27 -39z"/>
<path d="M2420 9094 c-96 -66 -240 -176 -240 -184 0 -18 53 -70 70 -70 11 0
43 19 72 43 29 23 89 67 133 96 44 30 82 55 84 57 9 8 -53 84 -68 83 -9 0 -32
-12 -51 -25z"/>
<path d="M8020 8873 l-33 -37 39 -30 c21 -17 83 -68 138 -113 54 -46 105 -83
112 -83 13 0 64 56 64 71 0 12 -25 36 -119 114 -40 33 -88 72 -106 88 -43 36
-57 34 -95 -10z"/>
<path d="M1887 8672 c-33 -26 -155 -148 -206 -204 l-23 -27 36 -37 35 -37 33
30 c82 74 228 219 228 226 0 4 -15 23 -34 42 l-34 34 -35 -27z"/>
<path d="M8537 8412 c-15 -15 -27 -33 -27 -38 0 -6 16 -26 36 -45 20 -18 72
-76 116 -126 44 -51 85 -93 91 -93 13 1 77 56 77 66 0 8 -73 94 -135 158 -27
29 -60 65 -72 79 -28 34 -52 34 -86 -1z"/>
<path d="M1402 8167 c-12 -13 -22 -28 -22 -35 0 -6 -6 -15 -12 -19 -26 -16
-158 -195 -158 -213 0 -6 10 -15 23 -20 12 -6 30 -15 39 -22 15 -10 22 -8 47
16 17 16 43 48 58 70 16 23 52 70 81 105 28 36 52 69 52 75 0 16 -53 66 -70
66 -9 0 -26 -10 -38 -23z"/>
<path d="M8976 7879 c-14 -11 -26 -26 -26 -33 0 -7 23 -44 51 -82 28 -38 54
-76 57 -84 8 -21 82 -130 88 -130 18 0 84 43 84 54 0 16 -88 164 -123 207 -12
14 -30 41 -39 58 -20 37 -53 41 -92 10z"/>
<path d="M995 7587 c-11 -17 -29 -50 -41 -72 -12 -22 -42 -77 -68 -121 -25
-45 -46 -84 -46 -87 0 -5 88 -57 97 -57 2 0 15 24 29 53 14 28 40 77 58 107
42 67 89 160 85 164 -2 1 -17 12 -33 24 -39 30 -58 28 -81 -11z"/>
<path d="M9348 7289 c-21 -11 -38 -24 -38 -29 0 -5 15 -42 34 -82 18 -40 51
-111 72 -158 21 -47 40 -87 41 -89 7 -10 93 41 93 54 0 29 -139 317 -155 321
-6 2 -27 -6 -47 -17z"/>
<path d="M677 6953 c-13 -27 -36 -86 -52 -133 -15 -47 -34 -97 -41 -112 -8
-15 -14 -33 -14 -40 0 -15 91 -51 101 -40 3 4 25 59 48 122 23 63 51 134 62
158 10 23 19 45 19 47 0 6 -77 45 -89 45 -6 0 -21 -21 -34 -47z"/>
<path d="M9612 6645 c-31 -14 -33 -17 -26 -52 4 -21 22 -85 40 -143 18 -58 36
-117 40 -133 3 -15 9 -29 13 -31 13 -9 101 18 101 30 0 7 -11 48 -24 91 -14
43 -32 106 -41 141 -30 117 -38 125 -103 97z"/>
<path d="M450 6258 c-12 -45 -26 -109 -31 -143 -5 -33 -12 -79 -15 -101 l-6
-41 47 -8 c31 -4 50 -3 54 4 4 6 15 55 25 108 10 54 25 123 32 154 20 83 19
85 -30 98 -25 6 -47 11 -49 11 -3 0 -15 -37 -27 -82z"/>
<path d="M9754 5966 c-3 -8 3 -70 14 -138 11 -68 23 -145 27 -172 6 -47 7 -48
37 -42 17 3 39 6 49 6 25 0 24 44 -4 220 l-22 135 -48 3 c-34 2 -49 -1 -53
-12z"/>
<path d="M340 5636 c0 -8 -4 -59 -10 -113 -5 -54 -11 -131 -13 -170 l-4 -73
57 0 58 0 6 128 c4 70 8 152 9 182 l2 55 -52 3 c-42 2 -53 0 -53 -12z"/>
<path d="M9820 5105 l0 -185 55 0 55 0 0 185 0 185 -55 0 -55 0 0 -185z"/>
<path d="M314 4913 c3 -21 8 -83 11 -138 3 -55 8 -121 11 -147 l7 -48 41 0
c22 0 46 4 52 8 7 5 8 51 3 142 -4 74 -8 154 -8 178 l-1 42 -60 0 -60 0 4 -37z"/>
<path d="M9796 4568 c-3 -18 -16 -98 -30 -178 -14 -79 -24 -146 -22 -147 2 -2
26 -6 54 -10 57 -6 50 -20 76 137 37 219 35 230 -36 230 -34 0 -37 -3 -42 -32z"/>
<path d="M418 4263 c-26 -7 -22 -53 23 -258 26 -117 26 -117 74 -104 22 6 44
14 48 18 4 5 1 37 -6 72 -8 35 -23 107 -32 159 -10 52 -20 101 -22 108 -5 12
-50 15 -85 5z"/>
<path d="M9641 3823 c-41 -131 -73 -245 -69 -248 14 -9 91 -34 97 -31 4 3 17
40 30 83 13 43 34 115 48 161 13 45 23 90 21 99 -2 9 -22 22 -48 29 -25 8 -45
14 -45 14 0 0 -16 -48 -34 -107z"/>
<path d="M613 3593 c-24 -8 -43 -21 -43 -28 0 -7 14 -47 30 -88 17 -42 30 -80
30 -87 0 -24 65 -160 77 -160 7 0 28 8 48 17 35 17 46 47 26 68 -5 6 -23 53
-41 105 -18 52 -36 100 -40 105 -4 6 -13 27 -19 48 -14 42 -11 41 -68 20z"/>
<path d="M9412 3202 c-18 -38 -32 -73 -32 -79 0 -6 -18 -43 -40 -83 -22 -40
-40 -78 -40 -84 0 -13 77 -59 88 -52 13 8 167 325 160 331 -15 11 -74 35 -87
35 -11 0 -28 -25 -49 -68z"/>
<path d="M878 2949 c-21 -11 -38 -22 -38 -25 0 -9 43 -89 76 -142 19 -29 34
-57 34 -62 0 -20 65 -110 79 -110 20 0 81 42 81 56 0 6 -7 17 -15 24 -8 7 -15
17 -15 23 0 6 -24 51 -53 101 -30 50 -60 106 -67 124 -14 37 -30 39 -82 11z"/>
<path d="M9075 2575 c-31 -52 -61 -97 -67 -101 -14 -9 -68 -95 -68 -108 0 -13
64 -56 83 -56 7 0 31 28 52 61 22 34 44 67 50 73 21 22 55 74 55 85 0 7 9 21
20 33 29 32 25 54 -17 83 -21 14 -41 25 -44 25 -4 0 -33 -43 -64 -95z"/>
<path d="M1243 2358 c-18 -11 -33 -25 -33 -32 0 -12 122 -184 143 -201 6 -5
24 -29 40 -52 15 -24 32 -43 37 -43 13 0 80 60 80 72 0 5 -28 44 -62 87 -35
44 -82 104 -105 135 -24 31 -49 56 -55 55 -7 0 -28 -10 -45 -21z"/>
<path d="M8620 1981 c-63 -70 -116 -134 -118 -142 -1 -8 14 -27 33 -42 l36
-28 39 31 c22 18 40 35 40 38 0 4 24 32 53 63 28 31 67 75 86 98 l33 42 -38
34 c-22 19 -41 34 -44 34 -3 0 -57 -58 -120 -128z"/>
<path d="M1688 1821 c-16 -15 -28 -32 -28 -38 0 -13 84 -98 187 -190 l72 -65
36 37 35 38 -37 41 c-20 22 -57 59 -82 81 -25 22 -63 59 -85 82 -23 24 -48 43
-56 43 -8 0 -27 -13 -42 -29z"/>
<path d="M8194 1562 c-28 -26 -85 -74 -127 -107 -41 -33 -76 -66 -76 -74 -1
-19 47 -81 62 -81 7 0 31 18 52 40 21 22 44 40 51 40 6 0 26 16 45 35 19 20
55 51 82 70 26 19 47 41 47 49 0 22 -49 76 -68 76 -10 0 -40 -22 -68 -48z"/>
<path d="M2208 1366 c-16 -19 -28 -41 -28 -48 0 -12 126 -109 239 -183 l55
-36 18 23 c38 51 44 69 25 80 -10 5 -33 22 -50 37 -18 16 -43 34 -55 40 -13 7
-55 37 -94 67 -39 30 -73 54 -77 54 -3 0 -18 -16 -33 -34z"/>
<path d="M7621 1135 c-46 -30 -87 -55 -90 -55 -7 0 -108 -63 -118 -74 -5 -5
45 -86 52 -86 12 0 122 58 170 90 33 21 74 47 92 56 55 28 59 39 29 84 -14 22
-32 40 -39 40 -6 0 -50 -25 -96 -55z"/>
<path d="M2780 975 c-16 -30 -21 -48 -14 -55 14 -14 302 -160 317 -160 7 0 17
15 23 33 6 17 14 39 18 47 4 10 -2 19 -16 26 -13 6 -84 43 -160 82 -75 40
-138 72 -140 72 -2 0 -14 -20 -28 -45z"/>
<path d="M7005 810 c-55 -27 -118 -53 -140 -59 -22 -6 -49 -17 -59 -24 -18
-13 -18 -15 -1 -60 16 -42 20 -46 44 -41 52 12 68 18 161 62 52 25 106 48 120
52 14 3 27 15 28 24 5 24 -28 96 -42 95 -6 0 -56 -22 -111 -49z"/>
<path d="M3411 693 c-18 -63 -15 -69 47 -93 94 -37 215 -77 250 -83 29 -6 34
-4 43 21 21 56 22 79 2 84 -10 3 -53 15 -97 27 -43 12 -104 32 -135 45 -100
42 -98 42 -110 -1z"/>
<path d="M6415 595 c-67 -22 -187 -53 -237 -60 -53 -7 -53 -7 -37 -72 l12 -45
45 6 c52 7 293 76 306 87 5 5 4 27 -4 53 -14 51 -21 53 -85 31z"/>
<path d="M4071 480 c-6 -29 -10 -54 -9 -55 7 -6 318 -65 341 -65 23 0 27 5 33
45 3 25 5 48 2 50 -2 2 -71 18 -154 35 -82 17 -161 33 -175 36 -25 6 -28 3
-38 -46z"/>
<path d="M5725 449 c-22 -4 -65 -8 -96 -8 -31 -1 -84 -4 -118 -7 l-62 -7 3
-56 3 -56 45 3 c25 1 109 10 188 19 l142 16 -6 36 c-13 78 -13 78 -99 60z"/>
<path d="M4765 422 c-3 -3 -5 -29 -5 -59 l0 -53 185 0 185 0 0 50 c0 32 -5 52
-12 55 -21 6 -347 13 -353 7z"/>
</g>
</svg>
