<svg width="32" height="32" viewBox="0 0 32 32" fill="none" xmlns="http://www.w3.org/2000/svg">
<path d="M16.0005 4.2666C11.5354 4.2666 5.74004 5.38535 5.74004 5.38535L5.72546 5.40202C3.69183 5.72726 2.13379 7.47473 2.13379 9.59994V15.9999V16.002V22.3999V22.402C2.13577 23.417 2.49952 24.398 3.15971 25.1689C3.8199 25.9399 4.73329 26.4502 5.73587 26.6083L5.74004 26.6145C5.74004 26.6145 11.5354 27.7354 16.0005 27.7354C20.4655 27.7354 26.2609 26.6145 26.2609 26.6145L26.263 26.6124C27.2666 26.4547 28.1811 25.9439 28.8418 25.1721C29.5025 24.4003 29.866 23.418 29.8671 22.402V22.3999V16.002V15.9999V9.59994C29.8656 8.58461 29.5021 7.60309 28.8419 6.83173C28.1816 6.06038 27.268 5.54975 26.265 5.3916L26.2609 5.38535C26.2609 5.38535 20.4655 4.2666 16.0005 4.2666ZM12.8005 11.0916L21.3338 15.9999L12.8005 20.9083V11.0916Z" fill="#B1C5FF"/>
</svg>
